<svg width="20" height="20" viewBox="0 0 20 20" fill="none" xmlns="http://www.w3.org/2000/svg">
<path d="M18.47 0.000139831H1.53004C1.33962 -0.00250479 1.15054 0.0323873 0.973609 0.102824C0.796674 0.17326 0.635347 0.27786 0.498841 0.410652C0.362335 0.543443 0.253325 0.701824 0.178035 0.876749C0.102746 1.05167 0.0626517 1.23972 0.0600433 1.43014V18.5701C0.0626517 18.7606 0.102746 18.9486 0.178035 19.1235C0.253325 19.2985 0.362335 19.4568 0.498841 19.5896C0.635347 19.7224 0.796674 19.827 0.973609 19.8975C1.15054 19.9679 1.33962 20.0028 1.53004 20.0001H18.47C18.6605 20.0028 18.8495 19.9679 19.0265 19.8975C19.2034 19.827 19.3647 19.7224 19.5012 19.5896C19.6378 19.4568 19.7468 19.2985 19.8221 19.1235C19.8973 18.9486 19.9374 18.7606 19.94 18.5701V1.43014C19.9374 1.23972 19.8973 1.05167 19.8221 0.876749C19.7468 0.701824 19.6378 0.543443 19.5012 0.410652C19.3647 0.27786 19.2034 0.17326 19.0265 0.102824C18.8495 0.0323873 18.6605 -0.00250479 18.47 0.000139831ZM6.09004 16.7401H3.09004V7.74014H6.09004V16.7401ZM4.59004 6.48014C4.17631 6.48014 3.77951 6.31578 3.48696 6.02323C3.1944 5.73067 3.03004 5.33388 3.03004 4.92014C3.03004 4.5064 3.1944 4.10961 3.48696 3.81705C3.77951 3.5245 4.17631 3.36014 4.59004 3.36014C4.80974 3.33522 5.03222 3.35699 5.24292 3.42402C5.45362 3.49105 5.64778 3.60183 5.8127 3.7491C5.97762 3.89637 6.10957 4.07682 6.19991 4.27862C6.29026 4.48042 6.33696 4.69904 6.33696 4.92014C6.33696 5.14124 6.29026 5.35985 6.19991 5.56166C6.10957 5.76346 5.97762 5.94391 5.8127 6.09118C5.64778 6.23845 5.45362 6.34923 5.24292 6.41626C5.03222 6.48328 4.80974 6.50505 4.59004 6.48014ZM16.91 16.7401H13.91V11.9101C13.91 10.7001 13.48 9.91014 12.39 9.91014C12.0527 9.91261 11.7242 10.0184 11.4489 10.2133C11.1735 10.4082 10.9645 10.6828 10.85 11.0001C10.7718 11.2352 10.7379 11.4827 10.75 11.7301V16.7301H7.75004C7.75004 16.7301 7.75004 8.55014 7.75004 7.73014H10.75V9.00014C11.0226 8.52724 11.419 8.13766 11.8965 7.87334C12.374 7.60902 12.9146 7.47999 13.46 7.50014C15.46 7.50014 16.91 8.79014 16.91 11.5601V16.7401Z" fill="white" fill-opacity="0.6"/>
</svg>
