<svg width="19" height="16" viewBox="0 0 19 16" fill="none" xmlns="http://www.w3.org/2000/svg">
<path d="M1.5 6.9375C0.947715 6.9375 0.5 7.38522 0.5 7.9375C0.5 8.48978 0.947715 8.9375 1.5 8.9375V6.9375ZM18.2071 8.64461C18.5976 8.25408 18.5976 7.62092 18.2071 7.23039L11.8431 0.866432C11.4526 0.475908 10.8195 0.475908 10.4289 0.866432C10.0384 1.25696 10.0384 1.89012 10.4289 2.28065L16.0858 7.9375L10.4289 13.5944C10.0384 13.9849 10.0384 14.618 10.4289 15.0086C10.8195 15.3991 11.4526 15.3991 11.8431 15.0086L18.2071 8.64461ZM1.5 8.9375H17.5V6.9375H1.5V8.9375Z" fill="white"/>
</svg>
