<svg width="136" height="36" viewBox="0 0 136 36" fill="none" xmlns="http://www.w3.org/2000/svg">
<path d="M67.7738 8.18952C80.0729 8.37152 76.2843 24.7408 76.8446 34.602C76.8503 34.7031 76.7847 34.7885 76.701 34.7885H71.8685C71.7889 34.7885 71.7243 34.7103 71.7243 34.6137V20.5125C71.7408 16.16 70.1013 13.5928 66.565 13.5713C64.3086 13.5715 62.3031 14.6534 61.2655 17.0865C61.2642 17.0896 61.2628 17.0926 61.2612 17.0955C59.8889 19.6853 60.7166 31.2641 60.5226 34.6267C60.5173 34.7183 60.4543 34.7885 60.3786 34.7885H55.6189C55.5392 34.7885 55.4746 34.7103 55.4746 34.6137V8.70852C55.4746 8.61197 55.5392 8.5337 55.6189 8.5337H60.1767C60.2564 8.5337 60.321 8.61197 60.321 8.70852V14.8775C60.321 15.0644 60.1115 15.1209 60.0461 14.9517L59.4968 13.5306C59.4773 13.4802 59.4785 13.4211 59.5005 13.3721C61.1046 9.801 64.3351 8.17741 67.7738 8.18952Z" fill="#50C878" stroke="#50C878" stroke-width="0.538827" stroke-miterlimit="10"/>
<path d="M100.234 34.8727V8.96755C100.234 8.871 100.299 8.79273 100.379 8.79273H104.937C105.016 8.79273 105.081 8.871 105.081 8.96755V14.926C105.081 15.125 104.85 15.1693 104.799 14.98L104.53 13.9764C104.519 13.9352 104.521 13.8901 104.535 13.8505C105.938 9.99548 109.017 8.49609 112.561 8.44923C112.641 8.44817 112.707 8.52749 112.707 8.62474V14.1017C112.707 14.2067 112.631 14.2869 112.545 14.2747C108.222 13.6613 105.107 16.7217 105.272 22.3627C105.272 22.3627 105.272 33.0056 105.272 34.794C105.272 34.9344 105.178 35.0476 105.062 35.0476H100.379C100.299 35.0476 100.234 34.9693 100.234 34.8727Z" fill="white" stroke="white" stroke-width="0.538827" stroke-miterlimit="10"/>
<path d="M80.207 13.8853V9.31213C80.207 9.21558 80.2716 9.13732 80.3513 9.13732H94.5307C94.6104 9.13732 94.6749 9.21558 94.6749 9.31213V13.8853C94.6749 13.9818 94.6104 14.0601 94.5307 14.0601H80.3513C80.2716 14.0601 80.207 13.9818 80.207 13.8853ZM91.2793 35.5329C86.5425 35.5441 83.7443 32.5175 83.7706 26.7211C83.7705 26.7211 83.7706 5.89193 83.7706 3.34581C83.7706 3.20526 83.865 3.0918 83.9815 3.0918H88.6865C88.7662 3.0918 88.8308 3.17006 88.8308 3.26661V26.5243C88.8308 27.7719 89.1024 28.7395 89.647 29.4287C90.7519 30.9111 93.2916 30.6789 94.5585 29.5253C94.6349 29.4558 94.7444 29.4904 94.7803 29.5976L96.1348 33.6371C96.1593 33.7101 96.1411 33.7948 96.0891 33.8422C94.7927 35.0266 92.9197 35.5304 91.2793 35.5329Z" fill="white" stroke="white" stroke-width="0.538827" stroke-miterlimit="10"/>
<path d="M12.0005 35.3042V22.8092C12.0005 22.615 12.2228 22.5655 12.2797 22.7471L12.662 23.9672C12.7243 24.1661 12.495 24.3018 12.4039 24.1201L0.954791 1.28512C0.89638 1.16862 0.965589 1.01953 1.07808 1.01953H6.35022C6.40062 1.01953 6.44736 1.0514 6.47352 1.10359L8.15728 4.46272L16.2983 20.7042C16.3567 20.8207 16.2875 20.9697 16.175 20.9697H13.5166C13.4042 20.9697 13.335 20.821 13.3931 20.7044L23.178 1.10386C23.2041 1.05151 23.2509 1.01953 23.3014 1.01953H28.2608C28.3734 1.01953 28.4426 1.16883 28.384 1.28532L16.8627 24.1935C16.7718 24.3742 16.5436 24.2404 16.6041 24.0419L16.995 22.76C17.0508 22.5769 17.2746 22.6254 17.2746 22.8205V35.3042C17.2746 35.4007 17.21 35.479 17.1303 35.479H12.1448C12.0651 35.479 12.0005 35.4007 12.0005 35.3042Z" fill="#50C878" stroke="#50C878" stroke-width="0.538827" stroke-miterlimit="10"/>
<path d="M37.1982 35.0928C31.5523 35.3868 27.1007 29.6457 29.9874 23.2287C32.5681 18.0986 39.9377 19.6227 44.3961 19.3909C44.4143 19.3899 44.4293 19.4075 44.4293 19.4297V23.436C44.4293 23.4575 44.4148 23.475 44.3971 23.475H38.4981C35.8131 23.4987 34.2653 24.1721 34.1108 27.0167C34.1107 27.0184 34.1107 27.0203 34.1107 27.022C34.1654 29.6233 36.1056 30.621 38.2544 30.613C40.6188 30.6154 42.8076 29.3158 43.7432 26.6332C43.7552 26.5989 43.7957 26.6018 43.8036 26.6377L44.5889 30.2064C44.5908 30.2147 44.5903 30.2236 44.5876 30.2316C43.3829 33.8345 40.5519 35.0824 37.1982 35.0928ZM44.0729 34.7497V29.4282C44.0729 29.4247 44.0725 29.4213 44.0718 29.4179L43.8299 28.343C43.8294 28.341 43.8291 28.339 43.8289 28.337C43.5436 25.3482 44.7617 16.8661 42.4684 14.8269C39.8775 12.1537 34.4623 13.3137 31.8342 15.905C31.8186 15.9203 31.7956 15.9147 31.786 15.8932L29.8271 11.4846C29.8195 11.4675 29.8233 11.4461 29.8362 11.4344C32.351 9.15064 35.7738 8.15693 38.9949 8.15652C52.4354 7.93673 48.2047 24.087 48.864 34.7472C48.8654 34.7698 48.8507 34.7888 48.832 34.7888H44.1051C44.0873 34.7888 44.0729 34.7713 44.0729 34.7497Z" fill="#50C878" stroke="#50C878" stroke-width="0.538827" stroke-miterlimit="10"/>
<path d="M123.342 35.1745C117.665 35.4868 112.773 29.9223 115.829 23.3172C115.831 23.3128 115.833 23.3083 115.836 23.304C118.565 18.1837 126.1 19.6973 130.724 19.4786C130.806 19.4747 130.874 19.5535 130.874 19.6527V23.382C130.874 23.4785 130.809 23.5568 130.73 23.5568H124.696C121.945 23.5939 120.308 24.189 120.127 27.0889C120.127 27.0969 120.127 27.1053 120.127 27.1133C120.203 29.7631 122.249 30.6949 124.443 30.6948C126.716 30.696 129.133 29.2382 130.217 26.8488C130.271 26.731 130.272 26.9359 130.501 27.1035L131.229 30.2791C131.038 30.2798 131.036 30.3215 131.023 30.3585C129.729 33.9832 126.777 35.156 123.342 35.1745ZM130.518 34.6957V29.5291C130.518 29.5129 130.516 29.4968 130.512 29.4813L130.267 28.436C130.265 28.4265 130.263 28.4171 130.262 28.4073C129.973 25.3852 131.226 16.9251 128.846 14.9087C126.174 12.271 120.663 13.359 117.87 15.8945C117.801 15.9577 117.701 15.9338 117.659 15.8418L115.73 11.674C115.694 11.5959 115.711 11.4966 115.772 11.445C118.399 9.19992 121.925 8.23957 125.229 8.23829C139.053 8.03533 134.901 23.613 135.5 34.6846C135.505 34.7854 135.44 34.8705 135.356 34.8705H130.662C130.582 34.8705 130.518 34.7923 130.518 34.6957Z" fill="white" stroke="white" stroke-width="0.538827" stroke-miterlimit="10"/>
<path d="M124.446 4.31984C124.436 6.97296 121.107 6.97273 121.098 4.31972C121.107 1.66673 124.436 1.66696 124.446 4.31984Z" fill="#50C878" stroke="#50C878" stroke-width="0.538827" stroke-miterlimit="10"/>
<path d="M130.167 4.31984C130.157 6.97296 126.828 6.97273 126.818 4.31972C126.828 1.66673 130.157 1.66696 130.167 4.31984Z" fill="#50C878" stroke="#50C878" stroke-width="0.538827" stroke-miterlimit="10"/>
</svg>
