<svg width="50" height="50" viewBox="0 0 50 50" fill="none" xmlns="http://www.w3.org/2000/svg">
<g filter="url(#filter0_bii_611_1968)">
<path opacity="0.5" d="M26.6562 4.16602H22.4896C18.5604 4.16602 16.5958 4.16602 15.3771 5.38685C14.1562 6.60768 14.1562 8.57018 14.1562 12.4993V19.791H34.9896V12.4993C34.9896 8.57018 34.9896 6.60768 33.7687 5.38685C32.5479 4.16602 30.5854 4.16602 26.6562 4.16602Z" fill="white" fill-opacity="0.07"/>
<path fill-rule="evenodd" clip-rule="evenodd" d="M27.5631 12.0477C26.6454 11.5473 25.6168 11.2852 24.5715 11.2852C23.5262 11.2852 22.4976 11.5473 21.5798 12.0477L11.5923 17.4935C10.6063 18.0311 9.78332 18.8244 9.20995 19.79C8.63657 20.7557 8.33398 21.858 8.33398 22.981V33.2685C8.33398 34.3916 8.63657 35.4938 9.20995 36.4595C9.78332 37.4251 10.6063 38.2184 11.5923 38.756L21.5798 44.2018C22.4976 44.7022 23.5262 44.9644 24.5715 44.9644C25.6168 44.9644 26.6454 44.7022 27.5631 44.2018L37.5527 38.756C38.5388 38.2184 39.3617 37.4251 39.9351 36.4595C40.5085 35.4938 40.8111 34.3916 40.8111 33.2685V22.9789C40.8111 21.8559 40.5085 20.7536 39.9351 19.7879C39.3617 18.8223 38.5388 18.029 37.5527 17.4914L27.5631 12.0477ZM24.5715 21.8748C23.9798 21.8748 23.584 22.5831 22.7923 24.006L22.5882 24.3727C22.3632 24.7768 22.2506 24.9768 22.0757 25.1102C21.9007 25.2435 21.6798 25.2935 21.2444 25.3914L20.8486 25.4831C19.309 25.831 18.5402 26.0039 18.359 26.5914C18.1757 27.181 18.6986 27.7935 19.7465 29.0185L20.0173 29.3352C20.3173 29.6831 20.4652 29.856 20.5319 30.0727C20.5986 30.2893 20.5777 30.5206 20.5319 30.9852L20.4902 31.4081C20.3319 33.0435 20.2527 33.8623 20.7319 34.2248C21.2111 34.5873 21.9298 34.256 23.3694 33.5935L23.7423 33.4227C24.1507 33.2352 24.3548 33.1414 24.5715 33.1414C24.7881 33.1414 24.9944 33.2352 25.4027 33.4227L25.7757 33.5935C27.2132 34.2581 27.934 34.5873 28.4131 34.2248C28.8923 33.8623 28.8132 33.0435 28.6548 31.4081L28.6132 30.9852C28.5673 30.5206 28.5444 30.2893 28.6132 30.0727C28.6798 29.8581 28.8277 29.6831 29.1256 29.3352L29.3965 29.0185C30.4465 27.7935 30.9694 27.181 30.7861 26.5914C30.6027 26.0039 29.834 25.831 28.2986 25.4831L27.9007 25.3914C27.4632 25.2935 27.2444 25.2456 27.0694 25.1102C26.8944 24.9768 26.7819 24.7768 26.5569 24.3727L26.3527 24.006C25.5611 22.5852 25.1652 21.8748 24.5715 21.8748Z" fill="#34BB62" fill-opacity="0.5"/>
<path fill-rule="evenodd" clip-rule="evenodd" d="M27.5631 12.0477C26.6454 11.5473 25.6168 11.2852 24.5715 11.2852C23.5262 11.2852 22.4976 11.5473 21.5798 12.0477L11.5923 17.4935C10.6063 18.0311 9.78332 18.8244 9.20995 19.79C8.63657 20.7557 8.33398 21.858 8.33398 22.981V33.2685C8.33398 34.3916 8.63657 35.4938 9.20995 36.4595C9.78332 37.4251 10.6063 38.2184 11.5923 38.756L21.5798 44.2018C22.4976 44.7022 23.5262 44.9644 24.5715 44.9644C25.6168 44.9644 26.6454 44.7022 27.5631 44.2018L37.5527 38.756C38.5388 38.2184 39.3617 37.4251 39.9351 36.4595C40.5085 35.4938 40.8111 34.3916 40.8111 33.2685V22.9789C40.8111 21.8559 40.5085 20.7536 39.9351 19.7879C39.3617 18.8223 38.5388 18.029 37.5527 17.4914L27.5631 12.0477ZM24.5715 21.8748C23.9798 21.8748 23.584 22.5831 22.7923 24.006L22.5882 24.3727C22.3632 24.7768 22.2506 24.9768 22.0757 25.1102C21.9007 25.2435 21.6798 25.2935 21.2444 25.3914L20.8486 25.4831C19.309 25.831 18.5402 26.0039 18.359 26.5914C18.1757 27.181 18.6986 27.7935 19.7465 29.0185L20.0173 29.3352C20.3173 29.6831 20.4652 29.856 20.5319 30.0727C20.5986 30.2893 20.5777 30.5206 20.5319 30.9852L20.4902 31.4081C20.3319 33.0435 20.2527 33.8623 20.7319 34.2248C21.2111 34.5873 21.9298 34.256 23.3694 33.5935L23.7423 33.4227C24.1507 33.2352 24.3548 33.1414 24.5715 33.1414C24.7881 33.1414 24.9944 33.2352 25.4027 33.4227L25.7757 33.5935C27.2132 34.2581 27.934 34.5873 28.4131 34.2248C28.8923 33.8623 28.8132 33.0435 28.6548 31.4081L28.6132 30.9852C28.5673 30.5206 28.5444 30.2893 28.6132 30.0727C28.6798 29.8581 28.8277 29.6831 29.1256 29.3352L29.3965 29.0185C30.4465 27.7935 30.9694 27.181 30.7861 26.5914C30.6027 26.0039 29.834 25.831 28.2986 25.4831L27.9007 25.3914C27.4632 25.2935 27.2444 25.2456 27.0694 25.1102C26.8944 24.9768 26.7819 24.7768 26.5569 24.3727L26.3527 24.006C25.5611 22.5852 25.1652 21.8748 24.5715 21.8748Z" fill="white" fill-opacity="0.07"/>
</g>
<defs>
<filter id="filter0_bii_611_1968" x="-86" y="-86" width="222" height="222" filterUnits="userSpaceOnUse" color-interpolation-filters="sRGB">
<feFlood flood-opacity="0" result="BackgroundImageFix"/>
<feGaussianBlur in="BackgroundImageFix" stdDeviation="43"/>
<feComposite in2="SourceAlpha" operator="in" result="effect1_backgroundBlur_611_1968"/>
<feBlend mode="normal" in="SourceGraphic" in2="effect1_backgroundBlur_611_1968" result="shape"/>
<feColorMatrix in="SourceAlpha" type="matrix" values="0 0 0 0 0 0 0 0 0 0 0 0 0 0 0 0 0 0 127 0" result="hardAlpha"/>
<feOffset dy="4"/>
<feGaussianBlur stdDeviation="2"/>
<feComposite in2="hardAlpha" operator="arithmetic" k2="-1" k3="1"/>
<feColorMatrix type="matrix" values="0 0 0 0 1 0 0 0 0 1 0 0 0 0 1 0 0 0 0.15 0"/>
<feBlend mode="normal" in2="shape" result="effect2_innerShadow_611_1968"/>
<feColorMatrix in="SourceAlpha" type="matrix" values="0 0 0 0 0 0 0 0 0 0 0 0 0 0 0 0 0 0 127 0" result="hardAlpha"/>
<feOffset/>
<feGaussianBlur stdDeviation="34"/>
<feComposite in2="hardAlpha" operator="arithmetic" k2="-1" k3="1"/>
<feColorMatrix type="matrix" values="0 0 0 0 1 0 0 0 0 1 0 0 0 0 1 0 0 0 0.05 0"/>
<feBlend mode="normal" in2="effect2_innerShadow_611_1968" result="effect3_innerShadow_611_1968"/>
</filter>
</defs>
</svg>
