<svg width="30" height="31" viewBox="0 0 30 31" fill="none" xmlns="http://www.w3.org/2000/svg">
<path fill-rule="evenodd" clip-rule="evenodd" d="M2.5 15.4258C2.5 8.52203 8.09625 2.92578 15 2.92578C21.9037 2.92578 27.5 8.52203 27.5 15.4258C27.5 22.3295 21.9037 27.9258 15 27.9258C8.09625 27.9258 2.5 22.3295 2.5 15.4258ZM15 5.42578C12.3478 5.42578 9.8043 6.47935 7.92893 8.35471C6.05357 10.2301 5 12.7736 5 15.4258C5 18.0779 6.05357 20.6215 7.92893 22.4968C9.8043 24.3722 12.3478 25.4258 15 25.4258C17.6522 25.4258 20.1957 24.3722 22.0711 22.4968C23.9464 20.6215 25 18.0779 25 15.4258C25 12.7736 23.9464 10.2301 22.0711 8.35471C20.1957 6.47935 17.6522 5.42578 15 5.42578Z" fill="white"/>
<path fill-rule="evenodd" clip-rule="evenodd" d="M16.25 9.17578C16.25 8.84426 16.1183 8.52632 15.8839 8.2919C15.6495 8.05748 15.3315 7.92578 15 7.92578C14.6685 7.92578 14.3505 8.05748 14.1161 8.2919C13.8817 8.52632 13.75 8.84426 13.75 9.17578V14.1758H8.75C8.41848 14.1758 8.10054 14.3075 7.86612 14.5419C7.6317 14.7763 7.5 15.0943 7.5 15.4258C7.5 15.7573 7.6317 16.0752 7.86612 16.3097C8.10054 16.5441 8.41848 16.6758 8.75 16.6758H13.75V21.6758C13.75 22.0073 13.8817 22.3252 14.1161 22.5597C14.3505 22.7941 14.6685 22.9258 15 22.9258C15.3315 22.9258 15.6495 22.7941 15.8839 22.5597C16.1183 22.3252 16.25 22.0073 16.25 21.6758V16.6758H21.25C21.5815 16.6758 21.8995 16.5441 22.1339 16.3097C22.3683 16.0752 22.5 15.7573 22.5 15.4258C22.5 15.0943 22.3683 14.7763 22.1339 14.5419C21.8995 14.3075 21.5815 14.1758 21.25 14.1758H16.25V9.17578Z" fill="white"/>
</svg>
