<svg width="1440" height="839" viewBox="0 0 1440 839" fill="none" xmlns="http://www.w3.org/2000/svg">
<rect y="-26.2148" width="68.5714" height="68.5714" stroke="white" stroke-opacity="0.06" stroke-width="1.37143"/>
<rect x="68.5723" y="-26.2148" width="68.5714" height="68.5714" stroke="white" stroke-opacity="0.06" stroke-width="1.37143"/>
<rect x="137.143" y="-26.2148" width="68.5714" height="68.5714" stroke="white" stroke-opacity="0.06" stroke-width="1.37143"/>
<rect x="205.715" y="-26.2148" width="68.5714" height="68.5714" stroke="white" stroke-opacity="0.06" stroke-width="1.37143"/>
<rect x="274.285" y="-26.2148" width="68.5714" height="68.5714" stroke="white" stroke-opacity="0.06" stroke-width="1.37143"/>
<rect x="342.857" y="-26.2148" width="68.5714" height="68.5714" stroke="white" stroke-opacity="0.06" stroke-width="1.37143"/>
<rect x="411.428" y="-26.2148" width="68.5714" height="68.5714" stroke="white" stroke-opacity="0.06" stroke-width="1.37143"/>
<rect x="480" y="-26.2148" width="68.5714" height="68.5714" stroke="white" stroke-opacity="0.06" stroke-width="1.37143"/>
<rect x="548.572" y="-26.2148" width="68.5714" height="68.5714" stroke="white" stroke-opacity="0.06" stroke-width="1.37143"/>
<rect x="617.143" y="-26.2148" width="68.5714" height="68.5714" stroke="white" stroke-opacity="0.06" stroke-width="1.37143"/>
<rect x="685.715" y="-26.2148" width="68.5714" height="68.5714" stroke="white" stroke-opacity="0.06" stroke-width="1.37143"/>
<rect x="754.285" y="-26.2148" width="68.5714" height="68.5714" stroke="white" stroke-opacity="0.06" stroke-width="1.37143"/>
<rect x="822.857" y="-26.2148" width="68.5714" height="68.5714" stroke="white" stroke-opacity="0.06" stroke-width="1.37143"/>
<rect x="891.428" y="-26.2148" width="68.5714" height="68.5714" stroke="white" stroke-opacity="0.06" stroke-width="1.37143"/>
<rect x="960" y="-26.2148" width="68.5714" height="68.5714" stroke="white" stroke-opacity="0.06" stroke-width="1.37143"/>
<rect x="1028.57" y="-26.2148" width="68.5714" height="68.5714" stroke="white" stroke-opacity="0.06" stroke-width="1.37143"/>
<rect x="1097.14" y="-26.2148" width="68.5714" height="68.5714" stroke="white" stroke-opacity="0.06" stroke-width="1.37143"/>
<rect x="1165.71" y="-26.2148" width="68.5714" height="68.5714" stroke="white" stroke-opacity="0.06" stroke-width="1.37143"/>
<rect x="1234.29" y="-26.2148" width="68.5714" height="68.5714" stroke="white" stroke-opacity="0.06" stroke-width="1.37143"/>
<rect x="1302.86" y="-26.2148" width="68.5714" height="68.5714" stroke="white" stroke-opacity="0.06" stroke-width="1.37143"/>
<rect x="1371.43" y="-26.2148" width="68.5714" height="68.5714" stroke="white" stroke-opacity="0.06" stroke-width="1.37143"/>
<rect y="42.3574" width="68.5714" height="68.5714" stroke="white" stroke-opacity="0.06" stroke-width="1.37143"/>
<rect x="68.5723" y="42.3574" width="68.5714" height="68.5714" stroke="white" stroke-opacity="0.06" stroke-width="1.37143"/>
<rect x="137.143" y="42.3574" width="68.5714" height="68.5714" fill="white" fill-opacity="0.05" stroke="white" stroke-opacity="0.06" stroke-width="1.37143"/>
<rect x="205.715" y="42.3574" width="68.5714" height="68.5714" stroke="white" stroke-opacity="0.06" stroke-width="1.37143"/>
<rect x="274.285" y="42.3574" width="68.5714" height="68.5714" stroke="white" stroke-opacity="0.06" stroke-width="1.37143"/>
<rect x="342.857" y="42.3574" width="68.5714" height="68.5714" stroke="white" stroke-opacity="0.06" stroke-width="1.37143"/>
<rect x="411.428" y="42.3574" width="68.5714" height="68.5714" stroke="white" stroke-opacity="0.06" stroke-width="1.37143"/>
<rect x="480" y="42.3574" width="68.5714" height="68.5714" stroke="white" stroke-opacity="0.06" stroke-width="1.37143"/>
<rect x="548.572" y="42.3574" width="68.5714" height="68.5714" stroke="white" stroke-opacity="0.06" stroke-width="1.37143"/>
<rect x="617.143" y="42.3574" width="68.5714" height="68.5714" fill="white" fill-opacity="0.05" stroke="white" stroke-opacity="0.06" stroke-width="1.37143"/>
<rect x="685.715" y="42.3574" width="68.5714" height="68.5714" stroke="white" stroke-opacity="0.06" stroke-width="1.37143"/>
<rect x="754.285" y="42.3574" width="68.5714" height="68.5714" stroke="white" stroke-opacity="0.06" stroke-width="1.37143"/>
<rect x="822.857" y="42.3574" width="68.5714" height="68.5714" stroke="white" stroke-opacity="0.06" stroke-width="1.37143"/>
<rect x="891.428" y="42.3574" width="68.5714" height="68.5714" stroke="white" stroke-opacity="0.06" stroke-width="1.37143"/>
<rect x="960" y="42.3574" width="68.5714" height="68.5714" stroke="white" stroke-opacity="0.06" stroke-width="1.37143"/>
<rect x="1028.57" y="42.3574" width="68.5714" height="68.5714" stroke="white" stroke-opacity="0.06" stroke-width="1.37143"/>
<rect x="1097.14" y="42.3574" width="68.5714" height="68.5714" stroke="white" stroke-opacity="0.06" stroke-width="1.37143"/>
<rect x="1165.71" y="42.3574" width="68.5714" height="68.5714" stroke="white" stroke-opacity="0.06" stroke-width="1.37143"/>
<rect x="1234.29" y="42.3574" width="68.5714" height="68.5714" stroke="white" stroke-opacity="0.06" stroke-width="1.37143"/>
<rect x="1302.86" y="42.3574" width="68.5714" height="68.5714" stroke="white" stroke-opacity="0.06" stroke-width="1.37143"/>
<rect x="1371.43" y="42.3574" width="68.5714" height="68.5714" stroke="white" stroke-opacity="0.06" stroke-width="1.37143"/>
<rect y="110.928" width="68.5714" height="68.5714" stroke="white" stroke-opacity="0.06" stroke-width="1.37143"/>
<rect x="68.5723" y="110.928" width="68.5714" height="68.5714" stroke="white" stroke-opacity="0.06" stroke-width="1.37143"/>
<rect x="137.143" y="110.928" width="68.5714" height="68.5714" stroke="white" stroke-opacity="0.06" stroke-width="1.37143"/>
<rect x="205.715" y="110.928" width="68.5714" height="68.5714" stroke="white" stroke-opacity="0.06" stroke-width="1.37143"/>
<rect x="274.285" y="110.928" width="68.5714" height="68.5714" stroke="white" stroke-opacity="0.06" stroke-width="1.37143"/>
<rect x="342.857" y="110.928" width="68.5714" height="68.5714" stroke="white" stroke-opacity="0.06" stroke-width="1.37143"/>
<rect x="411.428" y="110.928" width="68.5714" height="68.5714" stroke="white" stroke-opacity="0.06" stroke-width="1.37143"/>
<rect x="480" y="110.928" width="68.5714" height="68.5714" stroke="white" stroke-opacity="0.06" stroke-width="1.37143"/>
<rect x="548.572" y="110.928" width="68.5714" height="68.5714" stroke="white" stroke-opacity="0.06" stroke-width="1.37143"/>
<rect x="617.143" y="110.928" width="68.5714" height="68.5714" stroke="white" stroke-opacity="0.06" stroke-width="1.37143"/>
<rect x="685.715" y="110.928" width="68.5714" height="68.5714" stroke="white" stroke-opacity="0.06" stroke-width="1.37143"/>
<rect x="754.285" y="110.928" width="68.5714" height="68.5714" stroke="white" stroke-opacity="0.06" stroke-width="1.37143"/>
<rect x="822.857" y="110.928" width="68.5714" height="68.5714" stroke="white" stroke-opacity="0.06" stroke-width="1.37143"/>
<rect x="891.428" y="110.928" width="68.5714" height="68.5714" stroke="white" stroke-opacity="0.06" stroke-width="1.37143"/>
<rect x="960" y="110.928" width="68.5714" height="68.5714" stroke="white" stroke-opacity="0.06" stroke-width="1.37143"/>
<rect x="1028.57" y="110.928" width="68.5714" height="68.5714" stroke="white" stroke-opacity="0.06" stroke-width="1.37143"/>
<rect x="1097.14" y="110.928" width="68.5714" height="68.5714" fill="white" fill-opacity="0.05" stroke="white" stroke-opacity="0.06" stroke-width="1.37143"/>
<rect x="1165.71" y="110.928" width="68.5714" height="68.5714" stroke="white" stroke-opacity="0.06" stroke-width="1.37143"/>
<rect x="1234.29" y="110.928" width="68.5714" height="68.5714" stroke="white" stroke-opacity="0.06" stroke-width="1.37143"/>
<rect x="1302.86" y="110.928" width="68.5714" height="68.5714" stroke="white" stroke-opacity="0.06" stroke-width="1.37143"/>
<rect x="1371.43" y="110.928" width="68.5714" height="68.5714" stroke="white" stroke-opacity="0.06" stroke-width="1.37143"/>
<rect y="179.5" width="68.5714" height="68.5714" stroke="white" stroke-opacity="0.06" stroke-width="1.37143"/>
<rect x="68.5723" y="179.5" width="68.5714" height="68.5714" stroke="white" stroke-opacity="0.06" stroke-width="1.37143"/>
<rect x="137.143" y="179.5" width="68.5714" height="68.5714" stroke="white" stroke-opacity="0.06" stroke-width="1.37143"/>
<rect x="205.715" y="179.5" width="68.5714" height="68.5714" stroke="white" stroke-opacity="0.06" stroke-width="1.37143"/>
<rect x="274.285" y="179.5" width="68.5714" height="68.5714" stroke="white" stroke-opacity="0.06" stroke-width="1.37143"/>
<rect x="342.857" y="179.5" width="68.5714" height="68.5714" stroke="white" stroke-opacity="0.06" stroke-width="1.37143"/>
<rect x="411.428" y="179.5" width="68.5714" height="68.5714" stroke="white" stroke-opacity="0.06" stroke-width="1.37143"/>
<rect x="480" y="179.5" width="68.5714" height="68.5714" stroke="white" stroke-opacity="0.06" stroke-width="1.37143"/>
<rect x="548.572" y="179.5" width="68.5714" height="68.5714" stroke="white" stroke-opacity="0.06" stroke-width="1.37143"/>
<rect x="617.143" y="179.5" width="68.5714" height="68.5714" stroke="white" stroke-opacity="0.06" stroke-width="1.37143"/>
<rect x="685.715" y="179.5" width="68.5714" height="68.5714" stroke="white" stroke-opacity="0.06" stroke-width="1.37143"/>
<rect x="754.285" y="179.5" width="68.5714" height="68.5714" stroke="white" stroke-opacity="0.06" stroke-width="1.37143"/>
<rect x="822.857" y="179.5" width="68.5714" height="68.5714" stroke="white" stroke-opacity="0.06" stroke-width="1.37143"/>
<rect x="891.428" y="179.5" width="68.5714" height="68.5714" stroke="white" stroke-opacity="0.06" stroke-width="1.37143"/>
<rect x="960" y="179.5" width="68.5714" height="68.5714" stroke="white" stroke-opacity="0.06" stroke-width="1.37143"/>
<rect x="1028.57" y="179.5" width="68.5714" height="68.5714" stroke="white" stroke-opacity="0.06" stroke-width="1.37143"/>
<rect x="1097.14" y="179.5" width="68.5714" height="68.5714" stroke="white" stroke-opacity="0.06" stroke-width="1.37143"/>
<rect x="1165.71" y="179.5" width="68.5714" height="68.5714" stroke="white" stroke-opacity="0.06" stroke-width="1.37143"/>
<rect x="1234.29" y="179.5" width="68.5714" height="68.5714" stroke="white" stroke-opacity="0.06" stroke-width="1.37143"/>
<rect x="1302.86" y="179.5" width="68.5714" height="68.5714" stroke="white" stroke-opacity="0.06" stroke-width="1.37143"/>
<rect x="1371.43" y="179.5" width="68.5714" height="68.5714" stroke="white" stroke-opacity="0.06" stroke-width="1.37143"/>
<rect y="248.07" width="68.5714" height="68.5714" stroke="white" stroke-opacity="0.06" stroke-width="1.37143"/>
<rect x="68.5723" y="248.07" width="68.5714" height="68.5714" stroke="white" stroke-opacity="0.06" stroke-width="1.37143"/>
<rect x="137.143" y="248.07" width="68.5714" height="68.5714" stroke="white" stroke-opacity="0.06" stroke-width="1.37143"/>
<rect x="205.715" y="248.07" width="68.5714" height="68.5714" fill="white" fill-opacity="0.05" stroke="white" stroke-opacity="0.06" stroke-width="1.37143"/>
<rect x="274.285" y="248.07" width="68.5714" height="68.5714" stroke="white" stroke-opacity="0.06" stroke-width="1.37143"/>
<rect x="342.857" y="248.07" width="68.5714" height="68.5714" stroke="white" stroke-opacity="0.06" stroke-width="1.37143"/>
<rect x="411.428" y="248.07" width="68.5714" height="68.5714" stroke="white" stroke-opacity="0.06" stroke-width="1.37143"/>
<rect x="480" y="248.07" width="68.5714" height="68.5714" stroke="white" stroke-opacity="0.06" stroke-width="1.37143"/>
<rect x="548.572" y="248.07" width="68.5714" height="68.5714" stroke="white" stroke-opacity="0.06" stroke-width="1.37143"/>
<rect x="617.143" y="248.07" width="68.5714" height="68.5714" stroke="white" stroke-opacity="0.06" stroke-width="1.37143"/>
<rect x="685.715" y="248.07" width="68.5714" height="68.5714" stroke="white" stroke-opacity="0.06" stroke-width="1.37143"/>
<rect x="754.285" y="248.07" width="68.5714" height="68.5714" stroke="white" stroke-opacity="0.06" stroke-width="1.37143"/>
<rect x="822.857" y="248.07" width="68.5714" height="68.5714" fill="white" fill-opacity="0.05" stroke="white" stroke-opacity="0.06" stroke-width="1.37143"/>
<rect x="891.428" y="248.07" width="68.5714" height="68.5714" stroke="white" stroke-opacity="0.06" stroke-width="1.37143"/>
<rect x="960" y="248.07" width="68.5714" height="68.5714" stroke="white" stroke-opacity="0.06" stroke-width="1.37143"/>
<rect x="1028.57" y="248.07" width="68.5714" height="68.5714" stroke="white" stroke-opacity="0.06" stroke-width="1.37143"/>
<rect x="1097.14" y="248.07" width="68.5714" height="68.5714" stroke="white" stroke-opacity="0.06" stroke-width="1.37143"/>
<rect x="1165.71" y="248.07" width="68.5714" height="68.5714" stroke="white" stroke-opacity="0.06" stroke-width="1.37143"/>
<rect x="1234.29" y="248.07" width="68.5714" height="68.5714" stroke="white" stroke-opacity="0.06" stroke-width="1.37143"/>
<rect x="1302.86" y="248.07" width="68.5714" height="68.5714" stroke="white" stroke-opacity="0.06" stroke-width="1.37143"/>
<rect x="1371.43" y="248.07" width="68.5714" height="68.5714" stroke="white" stroke-opacity="0.06" stroke-width="1.37143"/>
<rect y="316.643" width="68.5714" height="68.5714" stroke="white" stroke-opacity="0.06" stroke-width="1.37143"/>
<rect x="68.5723" y="316.643" width="68.5714" height="68.5714" stroke="white" stroke-opacity="0.06" stroke-width="1.37143"/>
<rect x="137.143" y="316.643" width="68.5714" height="68.5714" stroke="white" stroke-opacity="0.06" stroke-width="1.37143"/>
<rect x="205.715" y="316.643" width="68.5714" height="68.5714" stroke="white" stroke-opacity="0.06" stroke-width="1.37143"/>
<rect x="274.285" y="316.643" width="68.5714" height="68.5714" stroke="white" stroke-opacity="0.06" stroke-width="1.37143"/>
<rect x="342.857" y="316.643" width="68.5714" height="68.5714" stroke="white" stroke-opacity="0.06" stroke-width="1.37143"/>
<rect x="411.428" y="316.643" width="68.5714" height="68.5714" stroke="white" stroke-opacity="0.06" stroke-width="1.37143"/>
<rect x="480" y="316.643" width="68.5714" height="68.5714" stroke="white" stroke-opacity="0.06" stroke-width="1.37143"/>
<rect x="548.572" y="316.643" width="68.5714" height="68.5714" stroke="white" stroke-opacity="0.06" stroke-width="1.37143"/>
<rect x="617.143" y="316.643" width="68.5714" height="68.5714" stroke="white" stroke-opacity="0.06" stroke-width="1.37143"/>
<rect x="685.715" y="316.643" width="68.5714" height="68.5714" stroke="white" stroke-opacity="0.06" stroke-width="1.37143"/>
<rect x="754.285" y="316.643" width="68.5714" height="68.5714" stroke="white" stroke-opacity="0.06" stroke-width="1.37143"/>
<rect x="822.857" y="316.643" width="68.5714" height="68.5714" stroke="white" stroke-opacity="0.06" stroke-width="1.37143"/>
<rect x="891.428" y="316.643" width="68.5714" height="68.5714" stroke="white" stroke-opacity="0.06" stroke-width="1.37143"/>
<rect x="960" y="316.643" width="68.5714" height="68.5714" stroke="white" stroke-opacity="0.06" stroke-width="1.37143"/>
<rect x="1028.57" y="316.643" width="68.5714" height="68.5714" stroke="white" stroke-opacity="0.06" stroke-width="1.37143"/>
<rect x="1097.14" y="316.643" width="68.5714" height="68.5714" stroke="white" stroke-opacity="0.06" stroke-width="1.37143"/>
<rect x="1165.71" y="316.643" width="68.5714" height="68.5714" stroke="white" stroke-opacity="0.06" stroke-width="1.37143"/>
<rect x="1234.29" y="316.643" width="68.5714" height="68.5714" fill="white" fill-opacity="0.05" stroke="white" stroke-opacity="0.06" stroke-width="1.37143"/>
<rect x="1302.86" y="316.643" width="68.5714" height="68.5714" stroke="white" stroke-opacity="0.06" stroke-width="1.37143"/>
<rect x="1371.43" y="316.643" width="68.5714" height="68.5714" stroke="white" stroke-opacity="0.06" stroke-width="1.37143"/>
<rect y="385.213" width="68.5714" height="68.5714" stroke="white" stroke-opacity="0.06" stroke-width="1.37143"/>
<rect x="68.5723" y="385.213" width="68.5714" height="68.5714" stroke="white" stroke-opacity="0.06" stroke-width="1.37143"/>
<rect x="137.143" y="385.213" width="68.5714" height="68.5714" stroke="white" stroke-opacity="0.06" stroke-width="1.37143"/>
<rect x="205.715" y="385.213" width="68.5714" height="68.5714" stroke="white" stroke-opacity="0.06" stroke-width="1.37143"/>
<rect x="274.285" y="385.213" width="68.5714" height="68.5714" stroke="white" stroke-opacity="0.06" stroke-width="1.37143"/>
<rect x="342.857" y="385.213" width="68.5714" height="68.5714" stroke="white" stroke-opacity="0.06" stroke-width="1.37143"/>
<rect x="411.428" y="385.213" width="68.5714" height="68.5714" stroke="white" stroke-opacity="0.06" stroke-width="1.37143"/>
<rect x="480" y="385.213" width="68.5714" height="68.5714" stroke="white" stroke-opacity="0.06" stroke-width="1.37143"/>
<rect x="548.572" y="385.213" width="68.5714" height="68.5714" stroke="white" stroke-opacity="0.06" stroke-width="1.37143"/>
<rect x="617.143" y="385.213" width="68.5714" height="68.5714" stroke="white" stroke-opacity="0.06" stroke-width="1.37143"/>
<rect x="685.715" y="385.213" width="68.5714" height="68.5714" stroke="white" stroke-opacity="0.06" stroke-width="1.37143"/>
<rect x="754.285" y="385.213" width="68.5714" height="68.5714" stroke="white" stroke-opacity="0.06" stroke-width="1.37143"/>
<rect x="822.857" y="385.213" width="68.5714" height="68.5714" stroke="white" stroke-opacity="0.06" stroke-width="1.37143"/>
<rect x="891.428" y="385.213" width="68.5714" height="68.5714" stroke="white" stroke-opacity="0.06" stroke-width="1.37143"/>
<rect x="960" y="385.213" width="68.5714" height="68.5714" stroke="white" stroke-opacity="0.06" stroke-width="1.37143"/>
<rect x="1028.57" y="385.213" width="68.5714" height="68.5714" stroke="white" stroke-opacity="0.06" stroke-width="1.37143"/>
<rect x="1097.14" y="385.213" width="68.5714" height="68.5714" stroke="white" stroke-opacity="0.06" stroke-width="1.37143"/>
<rect x="1165.71" y="385.213" width="68.5714" height="68.5714" stroke="white" stroke-opacity="0.06" stroke-width="1.37143"/>
<rect x="1234.29" y="385.213" width="68.5714" height="68.5714" stroke="white" stroke-opacity="0.06" stroke-width="1.37143"/>
<rect x="1302.86" y="385.213" width="68.5714" height="68.5714" stroke="white" stroke-opacity="0.06" stroke-width="1.37143"/>
<rect x="1371.43" y="385.213" width="68.5714" height="68.5714" stroke="white" stroke-opacity="0.06" stroke-width="1.37143"/>
<rect y="453.785" width="68.5714" height="68.5714" stroke="white" stroke-opacity="0.06" stroke-width="1.37143"/>
<rect x="68.5723" y="453.785" width="68.5714" height="68.5714" stroke="white" stroke-opacity="0.06" stroke-width="1.37143"/>
<rect x="137.143" y="453.785" width="68.5714" height="68.5714" stroke="white" stroke-opacity="0.06" stroke-width="1.37143"/>
<rect x="205.715" y="453.785" width="68.5714" height="68.5714" stroke="white" stroke-opacity="0.06" stroke-width="1.37143"/>
<rect x="274.285" y="453.785" width="68.5714" height="68.5714" stroke="white" stroke-opacity="0.06" stroke-width="1.37143"/>
<rect x="342.857" y="453.785" width="68.5714" height="68.5714" stroke="white" stroke-opacity="0.06" stroke-width="1.37143"/>
<rect x="411.428" y="453.785" width="68.5714" height="68.5714" stroke="white" stroke-opacity="0.06" stroke-width="1.37143"/>
<rect x="480" y="453.785" width="68.5714" height="68.5714" stroke="white" stroke-opacity="0.06" stroke-width="1.37143"/>
<rect x="548.572" y="453.785" width="68.5714" height="68.5714" fill="white" fill-opacity="0.05" stroke="white" stroke-opacity="0.06" stroke-width="1.37143"/>
<rect x="617.143" y="453.785" width="68.5714" height="68.5714" stroke="white" stroke-opacity="0.06" stroke-width="1.37143"/>
<rect x="685.715" y="453.785" width="68.5714" height="68.5714" stroke="white" stroke-opacity="0.06" stroke-width="1.37143"/>
<rect x="754.285" y="453.785" width="68.5714" height="68.5714" stroke="white" stroke-opacity="0.06" stroke-width="1.37143"/>
<rect x="822.857" y="453.785" width="68.5714" height="68.5714" stroke="white" stroke-opacity="0.06" stroke-width="1.37143"/>
<rect x="891.428" y="453.785" width="68.5714" height="68.5714" stroke="white" stroke-opacity="0.06" stroke-width="1.37143"/>
<rect x="960" y="453.785" width="68.5714" height="68.5714" stroke="white" stroke-opacity="0.06" stroke-width="1.37143"/>
<rect x="1028.57" y="453.785" width="68.5714" height="68.5714" stroke="white" stroke-opacity="0.06" stroke-width="1.37143"/>
<rect x="1097.14" y="453.785" width="68.5714" height="68.5714" stroke="white" stroke-opacity="0.06" stroke-width="1.37143"/>
<rect x="1165.71" y="453.785" width="68.5714" height="68.5714" stroke="white" stroke-opacity="0.06" stroke-width="1.37143"/>
<rect x="1234.29" y="453.785" width="68.5714" height="68.5714" stroke="white" stroke-opacity="0.06" stroke-width="1.37143"/>
<rect x="1302.86" y="453.785" width="68.5714" height="68.5714" stroke="white" stroke-opacity="0.06" stroke-width="1.37143"/>
<rect x="1371.43" y="453.785" width="68.5714" height="68.5714" stroke="white" stroke-opacity="0.06" stroke-width="1.37143"/>
<rect y="522.357" width="68.5714" height="68.5714" stroke="white" stroke-opacity="0.06" stroke-width="1.37143"/>
<rect x="68.5723" y="522.357" width="68.5714" height="68.5714" stroke="white" stroke-opacity="0.06" stroke-width="1.37143"/>
<rect x="137.143" y="522.357" width="68.5714" height="68.5714" stroke="white" stroke-opacity="0.06" stroke-width="1.37143"/>
<rect x="205.715" y="522.357" width="68.5714" height="68.5714" stroke="white" stroke-opacity="0.06" stroke-width="1.37143"/>
<rect x="274.285" y="522.357" width="68.5714" height="68.5714" fill="white" fill-opacity="0.05" stroke="white" stroke-opacity="0.06" stroke-width="1.37143"/>
<rect x="342.857" y="522.357" width="68.5714" height="68.5714" stroke="white" stroke-opacity="0.06" stroke-width="1.37143"/>
<rect x="411.428" y="522.357" width="68.5714" height="68.5714" stroke="white" stroke-opacity="0.06" stroke-width="1.37143"/>
<rect x="480" y="522.357" width="68.5714" height="68.5714" stroke="white" stroke-opacity="0.06" stroke-width="1.37143"/>
<rect x="548.572" y="522.357" width="68.5714" height="68.5714" stroke="white" stroke-opacity="0.06" stroke-width="1.37143"/>
<rect x="617.143" y="522.357" width="68.5714" height="68.5714" stroke="white" stroke-opacity="0.06" stroke-width="1.37143"/>
<rect x="685.715" y="522.357" width="68.5714" height="68.5714" stroke="white" stroke-opacity="0.06" stroke-width="1.37143"/>
<rect x="754.285" y="522.357" width="68.5714" height="68.5714" stroke="white" stroke-opacity="0.06" stroke-width="1.37143"/>
<rect x="822.857" y="522.357" width="68.5714" height="68.5714" stroke="white" stroke-opacity="0.06" stroke-width="1.37143"/>
<rect x="891.428" y="522.357" width="68.5714" height="68.5714" stroke="white" stroke-opacity="0.06" stroke-width="1.37143"/>
<rect x="960" y="522.357" width="68.5714" height="68.5714" stroke="white" stroke-opacity="0.06" stroke-width="1.37143"/>
<rect x="1028.57" y="522.357" width="68.5714" height="68.5714" stroke="white" stroke-opacity="0.06" stroke-width="1.37143"/>
<rect x="1097.14" y="522.357" width="68.5714" height="68.5714" stroke="white" stroke-opacity="0.06" stroke-width="1.37143"/>
<rect x="1165.71" y="522.357" width="68.5714" height="68.5714" stroke="white" stroke-opacity="0.06" stroke-width="1.37143"/>
<rect x="1234.29" y="522.357" width="68.5714" height="68.5714" stroke="white" stroke-opacity="0.06" stroke-width="1.37143"/>
<rect x="1302.86" y="522.357" width="68.5714" height="68.5714" stroke="white" stroke-opacity="0.06" stroke-width="1.37143"/>
<rect x="1371.43" y="522.357" width="68.5714" height="68.5714" stroke="white" stroke-opacity="0.06" stroke-width="1.37143"/>
<rect y="590.928" width="68.5714" height="68.5714" stroke="white" stroke-opacity="0.06" stroke-width="1.37143"/>
<rect x="68.5723" y="590.928" width="68.5714" height="68.5714" stroke="white" stroke-opacity="0.06" stroke-width="1.37143"/>
<rect x="137.143" y="590.928" width="68.5714" height="68.5714" stroke="white" stroke-opacity="0.06" stroke-width="1.37143"/>
<rect x="205.715" y="590.928" width="68.5714" height="68.5714" stroke="white" stroke-opacity="0.06" stroke-width="1.37143"/>
<rect x="274.285" y="590.928" width="68.5714" height="68.5714" stroke="white" stroke-opacity="0.06" stroke-width="1.37143"/>
<rect x="342.857" y="590.928" width="68.5714" height="68.5714" stroke="white" stroke-opacity="0.06" stroke-width="1.37143"/>
<rect x="411.428" y="590.928" width="68.5714" height="68.5714" stroke="white" stroke-opacity="0.06" stroke-width="1.37143"/>
<rect x="480" y="590.928" width="68.5714" height="68.5714" stroke="white" stroke-opacity="0.06" stroke-width="1.37143"/>
<rect x="548.572" y="590.928" width="68.5714" height="68.5714" stroke="white" stroke-opacity="0.06" stroke-width="1.37143"/>
<rect x="617.143" y="590.928" width="68.5714" height="68.5714" stroke="white" stroke-opacity="0.06" stroke-width="1.37143"/>
<rect x="685.715" y="590.928" width="68.5714" height="68.5714" stroke="white" stroke-opacity="0.06" stroke-width="1.37143"/>
<rect x="754.285" y="590.928" width="68.5714" height="68.5714" stroke="white" stroke-opacity="0.06" stroke-width="1.37143"/>
<rect x="822.857" y="590.928" width="68.5714" height="68.5714" stroke="white" stroke-opacity="0.06" stroke-width="1.37143"/>
<rect x="891.428" y="590.928" width="68.5714" height="68.5714" stroke="white" stroke-opacity="0.06" stroke-width="1.37143"/>
<rect x="960" y="590.928" width="68.5714" height="68.5714" stroke="white" stroke-opacity="0.06" stroke-width="1.37143"/>
<rect x="1028.57" y="590.928" width="68.5714" height="68.5714" stroke="white" stroke-opacity="0.06" stroke-width="1.37143"/>
<rect x="1097.14" y="590.928" width="68.5714" height="68.5714" stroke="white" stroke-opacity="0.06" stroke-width="1.37143"/>
<rect x="1165.71" y="590.928" width="68.5714" height="68.5714" stroke="white" stroke-opacity="0.06" stroke-width="1.37143"/>
<rect x="1234.29" y="590.928" width="68.5714" height="68.5714" stroke="white" stroke-opacity="0.06" stroke-width="1.37143"/>
<rect x="1302.86" y="590.928" width="68.5714" height="68.5714" stroke="white" stroke-opacity="0.06" stroke-width="1.37143"/>
<rect x="1371.43" y="590.928" width="68.5714" height="68.5714" stroke="white" stroke-opacity="0.06" stroke-width="1.37143"/>
<rect y="659.5" width="68.5714" height="68.5714" stroke="white" stroke-opacity="0.06" stroke-width="1.37143"/>
<rect x="68.5723" y="659.5" width="68.5714" height="68.5714" stroke="white" stroke-opacity="0.06" stroke-width="1.37143"/>
<rect x="137.143" y="659.5" width="68.5714" height="68.5714" stroke="white" stroke-opacity="0.06" stroke-width="1.37143"/>
<rect x="205.715" y="659.5" width="68.5714" height="68.5714" stroke="white" stroke-opacity="0.06" stroke-width="1.37143"/>
<rect x="274.285" y="659.5" width="68.5714" height="68.5714" stroke="white" stroke-opacity="0.06" stroke-width="1.37143"/>
<rect x="342.857" y="659.5" width="68.5714" height="68.5714" stroke="white" stroke-opacity="0.06" stroke-width="1.37143"/>
<rect x="411.428" y="659.5" width="68.5714" height="68.5714" stroke="white" stroke-opacity="0.06" stroke-width="1.37143"/>
<rect x="480" y="659.5" width="68.5714" height="68.5714" stroke="white" stroke-opacity="0.06" stroke-width="1.37143"/>
<rect x="548.572" y="659.5" width="68.5714" height="68.5714" stroke="white" stroke-opacity="0.06" stroke-width="1.37143"/>
<rect x="617.143" y="659.5" width="68.5714" height="68.5714" stroke="white" stroke-opacity="0.06" stroke-width="1.37143"/>
<rect x="685.715" y="659.5" width="68.5714" height="68.5714" stroke="white" stroke-opacity="0.06" stroke-width="1.37143"/>
<rect x="754.285" y="659.5" width="68.5714" height="68.5714" stroke="white" stroke-opacity="0.06" stroke-width="1.37143"/>
<rect x="822.857" y="659.5" width="68.5714" height="68.5714" stroke="white" stroke-opacity="0.06" stroke-width="1.37143"/>
<rect x="891.428" y="659.5" width="68.5714" height="68.5714" stroke="white" stroke-opacity="0.06" stroke-width="1.37143"/>
<rect x="960" y="659.5" width="68.5714" height="68.5714" stroke="white" stroke-opacity="0.06" stroke-width="1.37143"/>
<rect x="1028.57" y="659.5" width="68.5714" height="68.5714" stroke="white" stroke-opacity="0.06" stroke-width="1.37143"/>
<rect x="1097.14" y="659.5" width="68.5714" height="68.5714" stroke="white" stroke-opacity="0.06" stroke-width="1.37143"/>
<rect x="1165.71" y="659.5" width="68.5714" height="68.5714" stroke="white" stroke-opacity="0.06" stroke-width="1.37143"/>
<rect x="1234.29" y="659.5" width="68.5714" height="68.5714" stroke="white" stroke-opacity="0.06" stroke-width="1.37143"/>
<rect x="1302.86" y="659.5" width="68.5714" height="68.5714" stroke="white" stroke-opacity="0.06" stroke-width="1.37143"/>
<rect x="1371.43" y="659.5" width="68.5714" height="68.5714" stroke="white" stroke-opacity="0.06" stroke-width="1.37143"/>
<rect y="728.07" width="68.5714" height="68.5714" stroke="white" stroke-opacity="0.06" stroke-width="1.37143"/>
<rect x="68.5723" y="728.07" width="68.5714" height="68.5714" stroke="white" stroke-opacity="0.06" stroke-width="1.37143"/>
<rect x="137.143" y="728.07" width="68.5714" height="68.5714" stroke="white" stroke-opacity="0.06" stroke-width="1.37143"/>
<rect x="205.715" y="728.07" width="68.5714" height="68.5714" stroke="white" stroke-opacity="0.06" stroke-width="1.37143"/>
<rect x="274.285" y="728.07" width="68.5714" height="68.5714" stroke="white" stroke-opacity="0.06" stroke-width="1.37143"/>
<rect x="342.857" y="728.07" width="68.5714" height="68.5714" stroke="white" stroke-opacity="0.06" stroke-width="1.37143"/>
<rect x="411.428" y="728.07" width="68.5714" height="68.5714" stroke="white" stroke-opacity="0.06" stroke-width="1.37143"/>
<rect x="480" y="728.07" width="68.5714" height="68.5714" stroke="white" stroke-opacity="0.06" stroke-width="1.37143"/>
<rect x="548.572" y="728.07" width="68.5714" height="68.5714" stroke="white" stroke-opacity="0.06" stroke-width="1.37143"/>
<rect x="617.143" y="728.07" width="68.5714" height="68.5714" stroke="white" stroke-opacity="0.06" stroke-width="1.37143"/>
<rect x="685.715" y="728.07" width="68.5714" height="68.5714" stroke="white" stroke-opacity="0.06" stroke-width="1.37143"/>
<rect x="754.285" y="728.07" width="68.5714" height="68.5714" stroke="white" stroke-opacity="0.06" stroke-width="1.37143"/>
<rect x="822.857" y="728.07" width="68.5714" height="68.5714" stroke="white" stroke-opacity="0.06" stroke-width="1.37143"/>
<rect x="891.428" y="728.07" width="68.5714" height="68.5714" stroke="white" stroke-opacity="0.06" stroke-width="1.37143"/>
<rect x="960" y="728.07" width="68.5714" height="68.5714" stroke="white" stroke-opacity="0.06" stroke-width="1.37143"/>
<rect x="1028.57" y="728.07" width="68.5714" height="68.5714" stroke="white" stroke-opacity="0.06" stroke-width="1.37143"/>
<rect x="1097.14" y="728.07" width="68.5714" height="68.5714" stroke="white" stroke-opacity="0.06" stroke-width="1.37143"/>
<rect x="1165.71" y="728.07" width="68.5714" height="68.5714" stroke="white" stroke-opacity="0.06" stroke-width="1.37143"/>
<rect x="1234.29" y="728.07" width="68.5714" height="68.5714" stroke="white" stroke-opacity="0.06" stroke-width="1.37143"/>
<rect x="1302.86" y="728.07" width="68.5714" height="68.5714" stroke="white" stroke-opacity="0.06" stroke-width="1.37143"/>
<rect x="1371.43" y="728.07" width="68.5714" height="68.5714" stroke="white" stroke-opacity="0.06" stroke-width="1.37143"/>
<rect y="796.643" width="68.5714" height="68.5714" stroke="white" stroke-opacity="0.06" stroke-width="1.37143"/>
<rect x="68.5723" y="796.643" width="68.5714" height="68.5714" stroke="white" stroke-opacity="0.06" stroke-width="1.37143"/>
<rect x="137.143" y="796.643" width="68.5714" height="68.5714" stroke="white" stroke-opacity="0.06" stroke-width="1.37143"/>
<rect x="205.715" y="796.643" width="68.5714" height="68.5714" stroke="white" stroke-opacity="0.06" stroke-width="1.37143"/>
<rect x="274.285" y="796.643" width="68.5714" height="68.5714" stroke="white" stroke-opacity="0.06" stroke-width="1.37143"/>
<rect x="342.857" y="796.643" width="68.5714" height="68.5714" stroke="white" stroke-opacity="0.06" stroke-width="1.37143"/>
<rect x="411.428" y="796.643" width="68.5714" height="68.5714" stroke="white" stroke-opacity="0.06" stroke-width="1.37143"/>
<rect x="480" y="796.643" width="68.5714" height="68.5714" stroke="white" stroke-opacity="0.06" stroke-width="1.37143"/>
<rect x="548.572" y="796.643" width="68.5714" height="68.5714" stroke="white" stroke-opacity="0.06" stroke-width="1.37143"/>
<rect x="617.143" y="796.643" width="68.5714" height="68.5714" stroke="white" stroke-opacity="0.06" stroke-width="1.37143"/>
<rect x="685.715" y="796.643" width="68.5714" height="68.5714" stroke="white" stroke-opacity="0.06" stroke-width="1.37143"/>
<rect x="754.285" y="796.643" width="68.5714" height="68.5714" stroke="white" stroke-opacity="0.06" stroke-width="1.37143"/>
<rect x="822.857" y="796.643" width="68.5714" height="68.5714" stroke="white" stroke-opacity="0.06" stroke-width="1.37143"/>
<rect x="891.428" y="796.643" width="68.5714" height="68.5714" stroke="white" stroke-opacity="0.06" stroke-width="1.37143"/>
<rect x="960" y="796.643" width="68.5714" height="68.5714" stroke="white" stroke-opacity="0.06" stroke-width="1.37143"/>
<rect x="1028.57" y="796.643" width="68.5714" height="68.5714" stroke="white" stroke-opacity="0.06" stroke-width="1.37143"/>
<rect x="1097.14" y="796.643" width="68.5714" height="68.5714" stroke="white" stroke-opacity="0.06" stroke-width="1.37143"/>
<rect x="1165.71" y="796.643" width="68.5714" height="68.5714" stroke="white" stroke-opacity="0.06" stroke-width="1.37143"/>
<rect x="1234.29" y="796.643" width="68.5714" height="68.5714" stroke="white" stroke-opacity="0.06" stroke-width="1.37143"/>
<rect x="1302.86" y="796.643" width="68.5714" height="68.5714" stroke="white" stroke-opacity="0.06" stroke-width="1.37143"/>
<rect x="1371.43" y="796.643" width="68.5714" height="68.5714" stroke="white" stroke-opacity="0.06" stroke-width="1.37143"/>
</svg>
