<svg width="30" height="30" viewBox="0 0 30 30" fill="none" xmlns="http://www.w3.org/2000/svg">
<path d="M30.0003 14.4814H28.9667V15.5186H30.0003V14.4814Z" fill="black"/>
<path d="M17.5862 15.5222V14.4814H28.9667V13.4513H26.8959V10.3434H25.8623V13.4513H21.7242V11.3841H20.6906V13.4513H16.5526V16.5522H20.6906V18.623H21.7242V16.5522H25.8623V19.6531H26.8959V16.5522H28.9667V15.5222H17.5862Z" fill="black"/>
<path d="M25.8623 19.6531H24.8287V21.7239H25.8623V19.6531Z" fill="black"/>
<path d="M25.8623 8.27967H24.8287V10.3469H25.8623V8.27967Z" fill="black"/>
<path d="M24.8287 21.7239H23.795V22.7575H24.8287V21.7239Z" fill="black"/>
<path d="M24.8287 7.24249H23.795V8.27611H24.8287V7.24249Z" fill="black"/>
<path d="M23.795 22.7611H22.7579V23.7947H23.795V22.7611Z" fill="black"/>
<path d="M23.795 6.21243H22.7579V7.24605H23.795V6.21243Z" fill="black"/>
<path d="M22.7579 23.7911H21.7242V24.8283H22.7579V23.7911Z" fill="black"/>
<path d="M22.7579 5.17168H21.7242V6.20886H22.7579V5.17168Z" fill="black"/>
<path d="M21.7242 24.8319H19.657V25.8655H21.7242V24.8319Z" fill="black"/>
<path d="M20.6906 18.623H19.657V19.6566H20.6906V18.623Z" fill="black"/>
<path d="M20.6906 10.3434H19.657V11.3805H20.6906V10.3434Z" fill="black"/>
<path d="M21.7242 4.14162H19.657V5.17524H21.7242V4.14162Z" fill="black"/>
<path d="M19.657 19.6531H18.6234V20.6903H19.657V19.6531Z" fill="black"/>
<path d="M19.657 9.3133H18.6234V10.3469H19.657V9.3133Z" fill="black"/>
<path d="M16.5526 25.8619V21.7239H18.6234V20.6938H16.5526V16.5522H13.4481V20.6938H11.3809V21.7239H13.4481V25.8619H10.3473V26.8991H13.4481V28.9664H14.4853V17.5894H15.5189V28.9664H16.5526V26.8991H19.657V25.8619H16.5526Z" fill="black"/>
<path d="M15.5189 28.9664H14.4853V30H15.5189V28.9664Z" fill="black"/>
<path d="M15.5189 14.4814H14.4853V15.5186H15.5189V14.4814Z" fill="black"/>
<path d="M15.5189 0H14.4853V1.03362H15.5189V0Z" fill="black"/>
<path d="M13.4481 4.14162V8.27967H11.3809V9.3133H13.4481V13.4513H16.5526V9.3133H18.6234V8.27967H16.5526V4.14162H19.657V3.10443H16.5526V1.03719H15.5189V12.4142H14.4853V1.03719H13.4481V3.10443H10.3473V4.14162H13.4481Z" fill="black"/>
<path d="M11.3809 19.6531H10.3473V20.6903H11.3809V19.6531Z" fill="black"/>
<path d="M11.3809 9.3133H10.3473V10.3469H11.3809V9.3133Z" fill="black"/>
<path d="M10.3473 24.8319H8.27645V25.8655H10.3473V24.8319Z" fill="black"/>
<path d="M10.3473 18.623H9.31364V19.6566H10.3473V18.623Z" fill="black"/>
<path d="M10.3473 10.3434H9.31364V11.3805H10.3473V10.3434Z" fill="black"/>
<path d="M10.3473 4.14162H8.27645V5.17524H10.3473V4.14162Z" fill="black"/>
<path d="M8.27645 23.7911H7.24283V24.8283H8.27645V23.7911Z" fill="black"/>
<path d="M8.27645 5.17168H7.24283V6.20886H8.27645V5.17168Z" fill="black"/>
<path d="M7.24283 22.7611H6.20921V23.7947H7.24283V22.7611Z" fill="black"/>
<path d="M7.24283 6.21243H6.20921V7.24605H7.24283V6.21243Z" fill="black"/>
<path d="M6.20921 21.7239H5.17558V22.7575H6.20921V21.7239Z" fill="black"/>
<path d="M6.20921 7.24249H5.17558V8.27611H6.20921V7.24249Z" fill="black"/>
<path d="M5.17558 19.6531H4.1384V21.7239H5.17558V19.6531Z" fill="black"/>
<path d="M5.17558 8.27967H4.1384V10.3469H5.17558V8.27967Z" fill="black"/>
<path d="M4.1384 16.5522H8.27645V18.623H9.31364V16.5522H13.4481V13.4513H9.31364V11.3841H8.27645V13.4513H4.1384V10.3434H3.10477V13.4513H1.03753V14.4814H12.4145V15.5222H1.03753V16.5522H3.10477V19.6531H4.1384V16.5522Z" fill="black"/>
<path d="M1.03753 14.4814H0.00390625V15.5186H1.03753V14.4814Z" fill="black"/>
</svg>
