<svg width="30" height="30" viewBox="0 0 30 30" fill="none" xmlns="http://www.w3.org/2000/svg">
<path d="M10.8327 10.8333H12.4993V9.16667V7.5H10.8327H9.16602V9.16667H10.8327V10.8333Z" fill="black"/>
<path d="M17.5 7.5V9.16667V10.8333H19.1667V9.16667H20.8333V7.5H19.1667H17.5Z" fill="black"/>
<path d="M17.5007 17.5H15.834H14.1673H12.5007H10.834V19.1667H12.5007H14.1673H15.834H17.5007H19.1673H20.834V17.5H19.1673H17.5007Z" fill="black"/>
<path d="M10.8327 15.834H9.16602V17.5007H10.8327V15.834Z" fill="black"/>
<path d="M29.1667 12.5V11.6667V10.8333H28.3333V10V9.16667V8.33333H27.5V7.5V6.66667H26.6667V5.83333H25.8333V5H25V4.16667H24.1667V3.33333H23.3333V2.5H22.5H21.6667V1.66667H20.8333H20V0.833333H19.1667H18.3333H17.5V0H16.6667H15.8333H15H14.1667H13.3333H12.5V0.833333H11.6667H10.8333H10V1.66667H9.16667H8.33333V2.5H7.5H6.66667V3.33333H5.83333V4.16667H5V5H4.16667V5.83333H3.33333V6.66667H2.5V7.5V8.33333H1.66667V9.16667V10V10.8333H0.833333V11.6667V12.5V13.3333H0V14.1667V15V15.8333V16.6667H0.833333V17.5V18.3333V19.1667H1.66667V20V20.8333V21.6667H2.5V22.5V23.3333H3.33333V24.1667H4.16667V25H5V25.8333H5.83333V26.6667H6.66667V27.5H7.5H8.33333V28.3333H9.16667H10V29.1667H10.8333H11.6667H12.5V30H13.3333H14.1667H15H15.8333H16.6667H17.5V29.1667H18.3333H19.1667H20V28.3333H20.8333H21.6667V27.5H22.5H23.3333V26.6667H24.1667V25.8333H25V25H25.8333V24.1667H26.6667V23.3333H27.5V22.5V21.6667H28.3333V20.8333V20V19.1667H29.1667V18.3333V17.5V16.6667H30V15.8333V15V14.1667V13.3333H29.1667V12.5ZM28.3333 14.1667V15V15.8333V16.6667H27.5V17.5V18.3333V19.1667H26.6667V20V20.8333V21.6667H25.8333V22.5V23.3333H25V24.1667H24.1667V25H23.3333V25.8333H22.5V26.6667H21.6667H20.8333V27.5H20H19.1667V28.3333H18.3333H17.5H16.6667H15.8333H15H14.1667H13.3333H12.5H11.6667H10.8333V27.5H10H9.16667V26.6667H8.33333H7.5V25.8333H6.66667V25H5.83333V24.1667H5V23.3333H4.16667V22.5V21.6667H3.33333V20.8333V20V19.1667H2.5V18.3333V17.5V16.6667H1.66667V15.8333V15V14.1667V13.3333H2.5V12.5V11.6667V10.8333H3.33333V10V9.16667V8.33333H4.16667V7.5V6.66667H5V5.83333H5.83333V5H6.66667V4.16667H7.5V3.33333H8.33333H9.16667V2.5H10H10.8333V1.66667H11.6667H12.5H13.3333H14.1667H15H15.8333H16.6667H17.5H18.3333H19.1667V2.5H20H20.8333V3.33333H21.6667H22.5V4.16667H23.3333V5H24.1667V5.83333H25V6.66667H25.8333V7.5V8.33333H26.6667V9.16667V10V10.8333H27.5V11.6667V12.5V13.3333H28.3333V14.1667Z" fill="black"/>
</svg>
