<svg width="30" height="30" viewBox="0 0 30 30" fill="none" xmlns="http://www.w3.org/2000/svg">
<path d="M26.1071 18.25H24.7857V19.5714H26.1071V18.25Z" fill="black"/>
<path d="M24.7857 16.9643H23.4643V18.2857H24.7857V16.9643Z" fill="black"/>
<path d="M23.5 15.6429H22.1786V16.9643H23.5V15.6429Z" fill="black"/>
<path d="M22.1786 14.3571H20.8571V15.6786H22.1786V14.3571Z" fill="black"/>
<path d="M23.5 13.0357H22.1786V14.3571H23.5V13.0357Z" fill="black"/>
<path d="M26.1071 10.4286H24.7857V11.75H26.1071V10.4286Z" fill="black"/>
<path d="M24.7857 11.75H23.4643V13.0714H24.7857V11.75Z" fill="black"/>
<path d="M27.3929 16.9643H26.0714V18.2857H27.3929V16.9643Z" fill="black"/>
<path d="M28.7143 15.6429H27.3929V16.9643H28.7143V15.6429Z" fill="black"/>
<path d="M30 14.3571H28.6786V15.6786H30V14.3571Z" fill="black"/>
<path d="M28.7143 13.0357H27.3929V14.3571H28.7143V13.0357Z" fill="black"/>
<path d="M27.3929 11.75H26.0714V13.0714H27.3929V11.75Z" fill="black"/>
<path d="M20.8929 13.0357H19.5714V14.3571H20.8929V13.0357Z" fill="black"/>
<path d="M19.5714 11.75H18.25V13.0714H19.5714V11.75Z" fill="black"/>
<path d="M18.2857 10.4286H16.9643V11.75H18.2857V10.4286Z" fill="black"/>
<path d="M16.9643 9.14286H15.6429V10.4643H16.9643V9.14286Z" fill="black"/>
<path d="M18.2857 7.82143H16.9643V9.14286H18.2857V7.82143Z" fill="black"/>
<path d="M20.8929 5.21429H19.5714V6.53571H20.8929V5.21429Z" fill="black"/>
<path d="M19.5714 6.53571H18.25V7.85714H19.5714V6.53571Z" fill="black"/>
<path d="M22.1786 11.75H20.8571V13.0714H22.1786V11.75Z" fill="black"/>
<path d="M23.5 10.4286H22.1786V11.75H23.5V10.4286Z" fill="black"/>
<path d="M24.7857 9.14286H23.4643V10.4643H24.7857V9.14286Z" fill="black"/>
<path d="M23.5 7.82143H22.1786V9.14286H23.5V7.82143Z" fill="black"/>
<path d="M22.1786 6.53571H20.8571V7.85714H22.1786V6.53571Z" fill="black"/>
<path d="M15.6786 7.82143H14.3571V9.14286H15.6786V7.82143Z" fill="black"/>
<path d="M14.3571 6.53571H13.0357V7.85714H14.3571V6.53571Z" fill="black"/>
<path d="M13.0714 5.21429H11.75V6.53571H13.0714V5.21429Z" fill="black"/>
<path d="M11.75 3.92857H10.4286V5.25H11.75V3.92857Z" fill="black"/>
<path d="M13.0714 2.60714H11.75V3.92857H13.0714V2.60714Z" fill="black"/>
<path d="M15.6786 0H14.3571V1.32143H15.6786V0Z" fill="black"/>
<path d="M14.3571 1.32143H13.0357V2.64286H14.3571V1.32143Z" fill="black"/>
<path d="M16.9643 6.53571H15.6429V7.85714H16.9643V6.53571Z" fill="black"/>
<path d="M18.2857 5.21429H16.9643V6.53571H18.2857V5.21429Z" fill="black"/>
<path d="M19.5714 3.92857H18.25V5.25H19.5714V3.92857Z" fill="black"/>
<path d="M18.2857 2.60714H16.9643V3.92857H18.2857V2.60714Z" fill="black"/>
<path d="M16.9643 1.32143H15.6429V2.64286H16.9643V1.32143Z" fill="black"/>
<path d="M20.8929 23.4643H19.5714V24.7857H20.8929V23.4643Z" fill="black"/>
<path d="M19.5714 22.1786H18.25V23.5H19.5714V22.1786Z" fill="black"/>
<path d="M18.2857 20.8571H16.9643V22.1786H18.2857V20.8571Z" fill="black"/>
<path d="M16.9643 19.5714H15.6429V20.8929H16.9643V19.5714Z" fill="black"/>
<path d="M18.2857 18.25H16.9643V19.5714H18.2857V18.25Z" fill="black"/>
<path d="M20.8929 15.6429H19.5714V16.9643H20.8929V15.6429Z" fill="black"/>
<path d="M19.5714 16.9643H18.25V18.2857H19.5714V16.9643Z" fill="black"/>
<path d="M22.1786 22.1786H20.8571V23.5H22.1786V22.1786Z" fill="black"/>
<path d="M23.5 20.8571H22.1786V22.1786H23.5V20.8571Z" fill="black"/>
<path d="M24.7857 19.5714H23.4643V20.8929H24.7857V19.5714Z" fill="black"/>
<path d="M23.5 18.25H22.1786V19.5714H23.5V18.25Z" fill="black"/>
<path d="M22.1786 16.9643H20.8571V18.2857H22.1786V16.9643Z" fill="black"/>
<path d="M15.6786 18.25H14.3571V19.5714H15.6786V18.25Z" fill="black"/>
<path d="M14.3571 16.9643H13.0357V18.2857H14.3571V16.9643Z" fill="black"/>
<path d="M13.0714 15.6429H11.75V16.9643H13.0714V15.6429Z" fill="black"/>
<path d="M11.75 14.3571H10.4286V15.6786H11.75V14.3571Z" fill="black"/>
<path d="M13.0714 13.0357H11.75V14.3571H13.0714V13.0357Z" fill="black"/>
<path d="M15.6786 10.4286H14.3571V11.75H15.6786V10.4286Z" fill="black"/>
<path d="M14.3571 11.75H13.0357V13.0714H14.3571V11.75Z" fill="black"/>
<path d="M16.9643 16.9643H15.6429V18.2857H16.9643V16.9643Z" fill="black"/>
<path d="M18.2857 15.6429H16.9643V16.9643H18.2857V15.6429Z" fill="black"/>
<path d="M19.5714 14.3571H18.25V15.6786H19.5714V14.3571Z" fill="black"/>
<path d="M18.2857 13.0357H16.9643V14.3571H18.2857V13.0357Z" fill="black"/>
<path d="M16.9643 11.75H15.6429V13.0714H16.9643V11.75Z" fill="black"/>
<path d="M10.4643 13.0357H9.14286V14.3571H10.4643V13.0357Z" fill="black"/>
<path d="M9.14286 11.75H7.82143V13.0714H9.14286V11.75Z" fill="black"/>
<path d="M7.85714 10.4286H6.53571V11.75H7.85714V10.4286Z" fill="black"/>
<path d="M6.53571 9.14286H5.21429V10.4643H6.53571V9.14286Z" fill="black"/>
<path d="M7.85714 7.82143H6.53571V9.14286H7.85714V7.82143Z" fill="black"/>
<path d="M10.4643 5.21429H9.14286V6.53571H10.4643V5.21429Z" fill="black"/>
<path d="M9.14286 6.53571H7.82143V7.85714H9.14286V6.53571Z" fill="black"/>
<path d="M11.75 11.75H10.4286V13.0714H11.75V11.75Z" fill="black"/>
<path d="M13.0714 10.4286H11.75V11.75H13.0714V10.4286Z" fill="black"/>
<path d="M14.3571 9.14286H13.0357V10.4643H14.3571V9.14286Z" fill="black"/>
<path d="M13.0714 7.82143H11.75V9.14286H13.0714V7.82143Z" fill="black"/>
<path d="M11.75 6.53571H10.4286V7.85714H11.75V6.53571Z" fill="black"/>
<path d="M15.6786 28.6786H14.3571V30H15.6786V28.6786Z" fill="black"/>
<path d="M14.3571 27.3929H13.0357V28.7143H14.3571V27.3929Z" fill="black"/>
<path d="M13.0714 26.0714H11.75V27.3929H13.0714V26.0714Z" fill="black"/>
<path d="M11.75 24.7857H10.4286V26.1071H11.75V24.7857Z" fill="black"/>
<path d="M13.0714 23.4643H11.75V24.7857H13.0714V23.4643Z" fill="black"/>
<path d="M15.6786 20.8571H14.3571V22.1786H15.6786V20.8571Z" fill="black"/>
<path d="M14.3571 22.1786H13.0357V23.5H14.3571V22.1786Z" fill="black"/>
<path d="M16.9643 27.3929H15.6429V28.7143H16.9643V27.3929Z" fill="black"/>
<path d="M18.2857 26.0714H16.9643V27.3929H18.2857V26.0714Z" fill="black"/>
<path d="M19.5714 24.7857H18.25V26.1071H19.5714V24.7857Z" fill="black"/>
<path d="M18.2857 23.4643H16.9643V24.7857H18.2857V23.4643Z" fill="black"/>
<path d="M16.9643 22.1786H15.6429V23.5H16.9643V22.1786Z" fill="black"/>
<path d="M10.4643 23.4643H9.14286V24.7857H10.4643V23.4643Z" fill="black"/>
<path d="M9.14286 22.1786H7.82143V23.5H9.14286V22.1786Z" fill="black"/>
<path d="M7.85714 20.8571H6.53571V22.1786H7.85714V20.8571Z" fill="black"/>
<path d="M6.53571 19.5714H5.21429V20.8929H6.53571V19.5714Z" fill="black"/>
<path d="M7.85714 18.25H6.53571V19.5714H7.85714V18.25Z" fill="black"/>
<path d="M10.4643 15.6429H9.14286V16.9643H10.4643V15.6429Z" fill="black"/>
<path d="M9.14286 16.9643H7.82143V18.2857H9.14286V16.9643Z" fill="black"/>
<path d="M11.75 22.1786H10.4286V23.5H11.75V22.1786Z" fill="black"/>
<path d="M13.0714 20.8571H11.75V22.1786H13.0714V20.8571Z" fill="black"/>
<path d="M14.3571 19.5714H13.0357V20.8929H14.3571V19.5714Z" fill="black"/>
<path d="M13.0714 18.25H11.75V19.5714H13.0714V18.25Z" fill="black"/>
<path d="M11.75 16.9643H10.4286V18.2857H11.75V16.9643Z" fill="black"/>
<path d="M5.25 18.25H3.92857V19.5714H5.25V18.25Z" fill="black"/>
<path d="M3.92857 16.9643H2.60714V18.2857H3.92857V16.9643Z" fill="black"/>
<path d="M2.64286 15.6429H1.32143V16.9643H2.64286V15.6429Z" fill="black"/>
<path d="M1.32143 14.3571H0V15.6786H1.32143V14.3571Z" fill="black"/>
<path d="M2.64286 13.0357H1.32143V14.3571H2.64286V13.0357Z" fill="black"/>
<path d="M5.25 10.4286H3.92857V11.75H5.25V10.4286Z" fill="black"/>
<path d="M3.92857 11.75H2.60714V13.0714H3.92857V11.75Z" fill="black"/>
<path d="M6.53571 16.9643H5.21429V18.2857H6.53571V16.9643Z" fill="black"/>
<path d="M7.85714 15.6429H6.53571V16.9643H7.85714V15.6429Z" fill="black"/>
<path d="M9.14286 14.3571H7.82143V15.6786H9.14286V14.3571Z" fill="black"/>
<path d="M7.85714 13.0357H6.53571V14.3571H7.85714V13.0357Z" fill="black"/>
<path d="M6.53571 11.75H5.21429V13.0714H6.53571V11.75Z" fill="black"/>
</svg>
