<svg width="34" height="30" viewBox="0 0 34 30" fill="none" xmlns="http://www.w3.org/2000/svg">
<path d="M15.6673 1.66602H12.334V3.33268H15.6673V1.66602Z" fill="black"/>
<path d="M12.3353 3.33398H9.00195V5.00065H12.3353V3.33398Z" fill="black"/>
<path d="M9.0013 5H5.66797V6.66667H9.0013V5Z" fill="black"/>
<path d="M5.66732 6.66602H2.33398V8.33268H5.66732V6.66602Z" fill="black"/>
<path d="M19.0013 18.334H15.668V20.0007H19.0013V18.334Z" fill="black"/>
<path d="M15.6673 16.666H12.334V18.3327H15.6673V16.666Z" fill="black"/>
<path d="M12.3353 15H9.00195V16.6667H12.3353V15Z" fill="black"/>
<path d="M5.66732 11.666H2.33398V13.3327H5.66732V11.666Z" fill="black"/>
<path d="M2.33464 8.33398H0.667969V11.6673H2.33464V8.33398Z" fill="black"/>
<path d="M19.0013 0H15.668V1.66667H19.0013V0Z" fill="black"/>
<path d="M22.3353 1.66602H19.002V3.33268H22.3353V1.66602Z" fill="black"/>
<path d="M25.6673 3.33398H22.334V5.00065H25.6673V3.33398Z" fill="black"/>
<path d="M29.0013 5H25.668V6.66667H29.0013V5Z" fill="black"/>
<path d="M32.3353 6.66602H29.002V8.33268H32.3353V6.66602Z" fill="black"/>
<path d="M22.3353 16.666H19.002V18.3327H22.3353V16.666Z" fill="black"/>
<path d="M25.6673 15H22.334V16.6667H25.6673V15Z" fill="black"/>
<path d="M25.668 13.334V15.0007H27.3346V25.0007H29.0013V13.334H25.668Z" fill="black"/>
<path d="M32.3353 11.666H29.002V13.3327H32.3353V11.666Z" fill="black"/>
<path d="M34.0007 8.33398H32.334V11.6673H34.0007V8.33398Z" fill="black"/>
<path d="M7.33464 15.0007H9.0013V13.334H5.66797V25.0007H7.33464V15.0007Z" fill="black"/>
<path d="M10.6673 25H7.33398V26.6667H10.6673V25Z" fill="black"/>
<path d="M14.0013 26.666H10.668V28.3327H14.0013V26.666Z" fill="black"/>
<path d="M27.3353 25H24.002V26.6667H27.3353V25Z" fill="black"/>
<path d="M24.0013 26.666H20.668V28.3327H24.0013V26.666Z" fill="black"/>
<path d="M20.6686 28.334H14.002V30.0007H20.6686V28.334Z" fill="black"/>
<path d="M19.0013 8.33398H15.668V10.0007H19.0013V8.33398Z" fill="black"/>
</svg>
