<svg width="30" height="30" viewBox="0 0 30 30" fill="none" xmlns="http://www.w3.org/2000/svg">
<path d="M29.0625 11.25V8.4375H28.125V6.5625H27.1875V5.625H26.25V4.6875H25.3125V3.75H24.375V2.8125H23.4375V1.875H21.5625V0.9375H18.75V0H11.25V0.9375H8.4375V1.875H6.5625V2.8125H5.625V3.75H4.6875V4.6875H3.75V5.625H2.8125V6.5625H3.75H4.6875V11.25H5.625V12.1875H6.5625V14.0625H7.5V15H9.375V15.9375V17.8125H11.25V22.5H13.125V23.4375V24.375H14.0625V28.125H15V29.0625H11.25V28.125H8.4375V27.1875H6.5625V26.25H5.625V25.3125H4.6875V24.375H3.75V23.4375H2.8125V21.5625H1.875V18.75H0.9375V11.25H1.875V8.4375H2.8125V6.5625H1.875V8.4375H0.9375V11.25H0V18.75H0.9375V21.5625H1.875V23.4375H2.8125V24.375H3.75V25.3125H4.6875V26.25H5.625V27.1875H6.5625V28.125H8.4375V29.0625H11.25V30H18.75V29.0625H21.5625V28.125H23.4375V27.1875H24.375V26.25H25.3125V25.3125H26.25V24.375H27.1875V23.4375H28.125V21.5625H29.0625V18.75H30V11.25H29.0625ZM29.0625 18.75H28.125V21.5625H27.1875V23.4375H26.25V24.375H25.3125V25.3125H24.375V26.25H23.4375V27.1875H21.5625V28.125H18.75V29.0625H16.875V26.7188H17.8125V24.375H18.75V23.4375H19.6875V22.5H20.625V19.6875H18.75V18.75H16.875V17.8125H14.0625V18.75H13.125V17.8125H12.1875V15.9375H11.25V15H10.3125V13.125H9.375V12.1875H11.25V11.25H12.1875V12.1875H14.0625V11.25H15V12.1875H15.9375V13.125H16.875V14.0625H17.8125V13.125V12.1875H16.875V8.4375H17.8125V5.625H18.75V1.875H16.875V2.8125H17.8125V4.6875H16.875V2.8125H15V4.6875V5.625H14.0625V4.6875H13.125V5.625H12.1875V4.6875H11.25V2.8125H12.1875V1.875H11.25V0.9375H13.125V1.875H14.0625V0.9375H18.75V1.875H21.5625V2.8125H22.5V5.625H23.4375V7.5H24.375V8.4375H25.3125V7.5H27.1875V8.4375H28.125V10.3125H27.1875V11.25H26.25V12.1875H27.1875V15H28.125V17.8125H29.0625V18.75Z" fill="black"/>
</svg>
