<svg width="27" height="30" viewBox="0 0 27 30" fill="none" xmlns="http://www.w3.org/2000/svg">
<path d="M25.5371 11.7051H24.8056H24.0742V12.4365V13.1679H24.8056H25.5371H26.2685H27V12.4365V11.7051H26.2685H25.5371Z" fill="black"/>
<path d="M24.0752 20.4873H23.3437V19.7559H22.6123H21.8809V20.4873V21.2187H22.6123V21.9502H23.3437V22.6816H24.0752H24.8066V21.9502V21.2187H24.0752V20.4873Z" fill="black"/>
<path d="M23.3437 2.92578V3.65723H22.6123V4.38868H21.8809V5.1201V5.85155H22.6123H23.3437V5.1201H24.0752V4.38868H24.8066V3.65723V2.92578H24.0752H23.3437Z" fill="black"/>
<path d="M22.6129 17.562V16.8268V16.0954V15.364V14.6326V13.9011V13.1697V12.4382V11.7068V10.9753V10.2439V9.51247V8.78102H21.8814H21.15V8.04586V7.31441H20.4186H19.6871V6.58299V5.85154H18.9557H18.2205V5.1201V4.38867H17.4891H16.7576H16.0262H15.2947H14.5633H13.8318H13.1004H12.369H11.6375H10.9061H10.1746H9.43944V5.1201V5.85154H8.70801H7.97656V6.58299V7.31441H7.24511H6.51368V8.04586V8.78102H5.78223H5.05078V9.51247V10.2439V10.9753V11.7068V12.4382V13.1697V13.9011V14.6326V15.364V16.0954V16.8268V17.562H5.78223H6.51368V18.2935V19.0249H7.24511H7.97656V19.7564V20.4878H8.70801H9.43944V21.2192V21.9507V22.6821V23.4135H10.1746V24.145H10.9061V24.8764H11.6375H12.369H13.1004V25.6079H13.8318H14.5633H15.2947V24.8764H16.0262H16.7576H17.4891V24.145V23.4135H18.2205V22.6821V21.9507V21.2192V20.4878H18.9557H19.6871V19.7564V19.0249H20.4186H21.15V18.2935V17.562H21.8814H22.6129ZM17.4891 6.58299V7.31441H18.2205H18.9557V8.04586H19.6871V8.78102V9.51247H20.4186H21.15V10.2439H20.4186H19.6871V9.51247H18.9557V8.78102V8.04586H18.2205H17.4891V7.31441H16.7576V6.58299V5.85154H17.4891V6.58299ZM14.5633 24.145V23.4135V22.6821V21.9507H15.2947V21.2192V20.4878V19.7564H16.0262V19.0249V18.2935V17.562H15.2947V18.2935H14.5633H13.8318H13.1004H12.369V17.562H11.6375V18.2935V19.0249V19.7564H12.369V20.4878V21.2192V21.9507H13.1004V22.6821V23.4135V24.145H12.369V23.4135V22.6821V21.9507H11.6375V21.2192V20.4878V19.7564H10.9061V19.0249V18.2935V17.562H10.1746H9.43944V16.8268H8.70801V16.0954H9.43944V15.364H10.1746V14.6326H10.9061H11.6375V15.364H12.369V16.0954V16.8268V17.562H13.1004H13.8318H14.5633H15.2947V16.8268V16.0954V15.364H16.0262V14.6326H16.7576H17.4891V15.364H18.2205V16.0954H18.9557V16.8268H18.2205V17.562H17.4891H16.7576V18.2935V19.0249V19.7564H16.0262V20.4878V21.2192V21.9507H15.2947V22.6821V23.4135V24.145H14.5633Z" fill="black"/>
<path d="M16.7568 16.8262H17.4883H18.2197V16.0947H17.4883V15.3633H16.7568H16.0254V16.0947V16.8262V17.5613H16.7568V16.8262Z" fill="black"/>
<path d="M16.0244 27.8057H16.7558H17.4873V27.0742H16.7558H16.0244H15.293V27.8057H16.0244Z" fill="black"/>
<path d="M16.0244 26.3389H16.7558H17.4873V25.6074H16.7558H16.0244H15.293V26.3389H16.0244Z" fill="black"/>
<path d="M14.5635 29.2686H13.832H13.1006V28.5371H12.3692H11.6377H10.9062V29.2686H11.6377V30H12.3692H13.1006H13.832H14.5635H15.2949H16.0264V29.2686H16.7578V28.5371H16.0264H15.2949V29.2686H14.5635Z" fill="black"/>
<path d="M13.8311 27.8047H13.0996V28.5361H13.8311H14.5625H15.2939V27.8047H14.5625H13.8311Z" fill="black"/>
<path d="M13.8311 26.3379H13.0996V27.0731H13.8311H14.5625H15.2939V26.3379H14.5625H13.8311Z" fill="black"/>
<path d="M13.0996 0V0.731447V1.46287V2.19432V2.92574H13.8311H14.5625V2.19432V1.46287V0.731447V0H13.8311H13.0996Z" fill="black"/>
<path d="M12.3692 27.8057H13.1006V27.0742H12.3692H11.6377H10.9062V27.8057H11.6377H12.3692Z" fill="black"/>
<path d="M12.3692 26.3389H13.1006V25.6074H12.3692H11.6377H10.9062V26.3389H11.6377H12.3692Z" fill="black"/>
<path d="M11.6375 16.0947V15.3633H10.9061H10.1746V16.0947H9.43945V16.8262H10.1746H10.9061V17.5613H11.6375V16.8262V16.0947Z" fill="black"/>
<path d="M10.9053 27.8047H10.1738V28.5361H10.9053V27.8047Z" fill="black"/>
<path d="M10.9053 26.3379H10.1738V27.0731H10.9053V26.3379Z" fill="black"/>
<path d="M10.9053 24.877H10.1738V25.6084H10.9053V24.877Z" fill="black"/>
<path d="M4.31837 19.7559V20.4873H3.58692V21.2187H2.85547V21.9502V22.6816H3.58692H4.31837V21.9502H5.0498V21.2187H5.78125V20.4873V19.7559H5.0498H4.31837Z" fill="black"/>
<path d="M3.58692 5.1201H4.31837V5.85155H5.0498H5.78125V5.1201V4.38868H5.0498V3.65723H4.31837V2.92578H3.58692H2.85547V3.65723V4.38868H3.58692V5.1201Z" fill="black"/>
<path d="M3.58787 13.1679V12.4365V11.7051H2.85642H2.12499H1.39354H0.662109V12.4365V13.1679H1.39354H2.12499H2.85642H3.58787Z" fill="black"/>
</svg>
