<svg width="458" height="338" viewBox="0 0 458 338" fill="none" xmlns="http://www.w3.org/2000/svg">
<path d="M11.4248 181.5V170.75C27.9248 170.75 31.4248 163.75 31.4248 155.5V97C31.4248 84.75 39.4248 76.25 53.1748 76.25H65.6748V86.25H52.9248C46.1748 86.25 42.1748 91 42.1748 97V155.5C42.1748 165.75 38.9248 172.75 28.4248 176C38.9248 179.5 42.1748 186.5 42.1748 196.75V255.5C42.1748 261.5 46.1748 266.25 52.9248 266.25H65.6748V276.25H53.1748C39.4248 276.25 31.4248 267.75 31.4248 255.5V196.75C31.4248 188.5 27.9248 181.5 11.4248 181.5Z" fill="#34BB62"/>
<path d="M105.917 111L89.405 41.368C89.277 40.856 89.661 40.6 90.045 40.6H105.149C105.533 40.6 105.789 40.856 105.917 41.24L112.701 75.416H115.261L122.045 41.24C122.173 40.856 122.429 40.6 122.813 40.6H137.917C138.301 40.6 138.685 40.856 138.557 41.368L122.045 111V142.36C122.045 142.744 121.789 143 121.405 143H106.557C106.173 143 105.917 142.744 105.917 142.36V111ZM175.198 41.24L180.83 142.36C180.83 142.872 180.574 143 180.19 143H164.83C164.446 143 164.19 142.872 164.19 142.36L162.91 116.76H153.95L152.67 142.36C152.67 142.872 152.414 143 152.03 143H136.67C136.286 143 136.03 142.872 136.03 142.36L141.662 41.24C141.662 40.728 141.918 40.6 142.302 40.6H174.558C174.942 40.6 175.198 40.728 175.198 41.24ZM157.15 55.96L154.846 101.4H162.014L159.71 55.96H157.15ZM200.685 143H185.325C184.941 143 184.685 142.744 184.685 142.36V41.24C184.685 40.856 184.941 40.6 185.325 40.6H200.685C201.069 40.6 201.325 40.856 201.453 41.24L210.285 84.12H212.845V41.24C212.845 40.856 213.101 40.6 213.485 40.6H230.125C230.509 40.6 230.765 40.856 230.765 41.24V142.36C230.765 142.744 230.509 143 230.125 143H215.277C214.893 143 214.637 142.744 214.509 142.36L203.885 94.36H201.325V142.36C201.325 142.744 201.069 143 200.685 143ZM236.575 40.6H272.415C272.799 40.6 273.055 40.856 273.055 41.24V55.32C273.055 55.704 272.799 55.96 272.415 55.96H262.815V142.36C262.815 142.744 262.559 143 262.175 143H246.815C246.431 143 246.175 142.744 246.175 142.36V55.96H236.575C236.191 55.96 235.935 55.704 235.935 55.32V41.24C235.935 40.856 236.191 40.6 236.575 40.6ZM320.681 142.232C320.937 142.616 320.681 143 320.297 143H304.681C304.425 143 304.041 142.744 303.913 142.488C302.249 139.928 302.249 135.448 302.249 133.016L302.505 96.92H294.825V142.36C294.825 142.744 294.569 143 294.185 143H278.825C278.441 143 278.185 142.744 278.185 142.36V41.24C278.185 40.856 278.441 40.6 278.825 40.6H306.345C316.585 40.6 319.145 48.28 319.145 61.08V78.744C319.145 85.656 315.177 87.704 313.129 87.96V90.52C315.049 90.776 319.145 92.824 319.145 99.736V133.016C319.145 135.192 319.145 139.672 320.681 142.232ZM294.825 81.56H302.505V55.96H294.825V81.56ZM362.948 41.24L368.58 142.36C368.58 142.872 368.324 143 367.94 143H352.58C352.196 143 351.94 142.872 351.94 142.36L350.66 116.76H341.7L340.42 142.36C340.42 142.872 340.164 143 339.78 143H324.42C324.036 143 323.78 142.872 323.78 142.36L329.412 41.24C329.412 40.728 329.668 40.6 330.052 40.6H362.308C362.692 40.6 362.948 40.728 362.948 41.24ZM344.9 55.96L342.596 101.4H349.764L347.46 55.96H344.9ZM104.958 194.6H120.318C120.702 194.6 120.958 194.856 120.958 195.24V296.36C120.958 296.744 120.702 297 120.318 297H104.958C104.574 297 104.318 296.744 104.318 296.36V253.48H96.6375V296.36C96.6375 296.744 96.3815 297 95.9975 297H80.6375C80.2535 297 79.9975 296.744 79.9975 296.36V195.24C79.9975 194.856 80.2535 194.6 80.6375 194.6H95.9975C96.3815 194.6 96.6375 194.856 96.6375 195.24V238.12H104.318V195.24C104.318 194.856 104.574 194.6 104.958 194.6ZM164.011 195.24L169.643 296.36C169.643 296.872 169.387 297 169.003 297H153.643C153.259 297 153.003 296.872 153.003 296.36L151.723 270.76H142.763L141.483 296.36C141.483 296.872 141.227 297 140.843 297H125.483C125.099 297 124.843 296.872 124.843 296.36L130.475 195.24C130.475 194.728 130.731 194.6 131.115 194.6H163.371C163.755 194.6 164.011 194.728 164.011 195.24ZM145.963 209.96L143.659 255.4H150.827L148.523 209.96H145.963ZM197.193 238.504V209.96H189.513V281.64H197.193V247.464C197.193 247.08 197.449 246.824 197.833 246.824H213.193C213.577 246.824 213.833 247.08 213.833 247.464V276.52C213.833 289.32 211.273 297 201.033 297H185.673C175.433 297 172.873 289.32 172.873 276.52V215.08C172.873 202.28 175.433 194.6 185.673 194.6H201.033C211.273 194.6 213.833 202.28 213.833 215.08V238.504C213.833 238.888 213.577 239.144 213.193 239.144H197.833C197.449 239.144 197.193 238.888 197.193 238.504ZM234.998 297H219.638C219.254 297 218.998 296.744 218.998 296.36V195.24C218.998 194.856 219.254 194.6 219.638 194.6H234.998C235.382 194.6 235.638 194.856 235.638 195.24V237.48H238.198L246.39 195.24C246.518 194.856 246.774 194.6 247.158 194.6H263.03C263.414 194.6 263.67 194.856 263.542 195.24L253.046 245.8L263.542 296.36C263.67 296.872 263.414 297 263.03 297H247.158C246.774 297 246.518 296.744 246.39 296.36L238.198 254.12H235.638V296.36C235.638 296.744 235.382 297 234.998 297ZM268.653 223.4H268.013C267.629 223.4 267.373 223.144 267.373 222.76V217.64C267.373 217.256 267.629 217 268.013 217H272.493C274.541 217 274.541 215.72 274.541 211.88H268.013C267.629 211.88 267.373 211.624 267.373 211.24V195.24C267.373 194.856 267.629 194.6 268.013 194.6H280.812C281.197 194.6 281.453 194.856 281.453 195.24V211.88C281.453 223.4 280.173 223.4 268.653 223.4ZM316.062 247.72L305.823 252.84C303.135 254.12 303.263 256.552 303.263 257.96V281.64H310.943V256.68C310.943 256.296 311.199 256.04 311.583 256.04H326.943C327.327 256.04 327.583 256.296 327.583 256.68V296.36C327.583 296.744 327.327 297 326.943 297H287.263C286.879 297 286.623 296.744 286.623 296.36V257.576C286.623 247.208 290.335 242.6 298.143 238.76L308.383 233.64C311.071 232.36 310.943 229.928 310.943 228.52V209.96H303.263V229.672C303.263 230.056 303.007 230.312 302.623 230.312H287.263C286.879 230.312 286.623 230.056 286.623 229.672V213.416C286.623 203.048 290.591 194.6 298.143 194.6H316.062C322.335 194.6 327.583 203.048 327.583 213.416V228.904C327.583 239.272 323.871 243.752 316.062 247.72ZM372.94 256.04H377.42C377.804 256.04 378.06 256.296 378.06 256.68V270.76C378.06 271.144 377.804 271.4 377.42 271.4H372.94V296.36C372.94 296.744 372.684 297 372.3 297H355.66C355.276 297 355.02 296.744 355.02 296.36V271.4H333.388C333.004 271.4 332.748 271.144 332.748 270.76V256.296C332.748 256.04 332.876 255.784 332.876 255.528L344.652 195.112C344.78 194.728 345.036 194.6 345.42 194.6H372.3C372.684 194.6 372.94 194.856 372.94 195.24V256.04ZM355.02 223.912H352.46L346.828 256.04H355.02V223.912Z" fill="white"/>
<path d="M404.925 276.25H392.425V266.25H405.175C411.925 266.25 415.925 261.5 415.925 255.5V196.75C415.925 186.5 419.175 179.5 429.675 176C419.175 172.75 415.925 165.75 415.925 155.5V97C415.925 91 411.925 86.25 405.175 86.25H392.425V76.25H404.925C418.675 76.25 426.675 84.75 426.675 97V155.5C426.675 163.75 430.175 170.75 446.675 170.75V181.5C430.175 181.5 426.675 188.5 426.675 196.75V255.5C426.675 267.75 418.675 276.25 404.925 276.25Z" fill="#34BB62"/>
</svg>
