<svg width="20" height="17" viewBox="0 0 20 17" fill="none" xmlns="http://www.w3.org/2000/svg">
<path d="M20 2.13322C19.2484 2.45931 18.4534 2.67488 17.64 2.77322C18.4982 2.26054 19.1413 1.454 19.45 0.503217C18.6436 0.98328 17.7608 1.32151 16.84 1.50322C16.2246 0.835789 15.405 0.391514 14.5098 0.240069C13.6147 0.088624 12.6946 0.238576 11.8938 0.666407C11.0931 1.09424 10.4569 1.77575 10.0853 2.60405C9.71356 3.43236 9.62731 4.36061 9.84001 5.24322C8.20944 5.16074 6.61446 4.73617 5.15867 3.99708C3.70288 3.25799 2.41886 2.22091 1.39002 0.953217C1.02915 1.58339 0.839534 2.29704 0.840015 3.02322C0.838735 3.6976 1.00423 4.36183 1.32177 4.95678C1.63931 5.55173 2.09903 6.05893 2.66001 6.43322C2.00799 6.41548 1.3699 6.24052 0.800015 5.92322V5.97322C0.804902 6.91811 1.13601 7.83231 1.73733 8.56118C2.33865 9.29006 3.17327 9.78886 4.10001 9.97322C3.74327 10.0818 3.37289 10.139 3.00001 10.1432C2.74191 10.1402 2.48444 10.1168 2.23002 10.0732C2.49392 10.886 3.00464 11.5964 3.69109 12.1054C4.37754 12.6144 5.20559 12.8968 6.06001 12.9132C4.61722 14.0485 2.8359 14.6681 1.00002 14.6732C0.66575 14.6743 0.331751 14.6543 1.52588e-05 14.6132C1.87444 15.8235 4.05883 16.4659 6.29001 16.4632C7.82971 16.4792 9.35715 16.1882 10.7831 15.6073C12.2091 15.0264 13.505 14.1671 14.5952 13.0797C15.6854 11.9923 16.548 10.6986 17.1326 9.27412C17.7172 7.84964 18.0121 6.32294 18 4.78322C18 4.61322 18 4.43322 18 4.25322C18.7847 3.66803 19.4615 2.95064 20 2.13322Z" fill="white" fill-opacity="0.6"/>
</svg>
