<svg width="454" height="338" viewBox="0 0 454 338" fill="none" xmlns="http://www.w3.org/2000/svg">
<path d="M11.9248 181.5V170.75C28.4248 170.75 31.9248 163.75 31.9248 155.5V97C31.9248 84.75 39.9248 76.25 53.6748 76.25H66.1748V86.25H53.4248C46.6748 86.25 42.6748 91 42.6748 97V155.5C42.6748 165.75 39.4248 172.75 28.9248 176C39.4248 179.5 42.6748 186.5 42.6748 196.75V255.5C42.6748 261.5 46.6748 266.25 53.4248 266.25H66.1748V276.25H53.6748C39.9248 276.25 31.9248 267.75 31.9248 255.5V196.75C31.9248 188.5 28.4248 181.5 11.9248 181.5Z" fill="#34BB62"/>
<path d="M103.917 111L87.405 41.368C87.277 40.856 87.661 40.6 88.045 40.6H103.149C103.533 40.6 103.789 40.856 103.917 41.24L110.701 75.416H113.261L120.045 41.24C120.173 40.856 120.429 40.6 120.813 40.6H135.917C136.301 40.6 136.685 40.856 136.557 41.368L120.045 111V142.36C120.045 142.744 119.789 143 119.405 143H104.557C104.173 143 103.917 142.744 103.917 142.36V111ZM173.198 41.24L178.83 142.36C178.83 142.872 178.574 143 178.19 143H162.83C162.446 143 162.19 142.872 162.19 142.36L160.91 116.76H151.95L150.67 142.36C150.67 142.872 150.414 143 150.03 143H134.67C134.286 143 134.03 142.872 134.03 142.36L139.662 41.24C139.662 40.728 139.918 40.6 140.302 40.6H172.558C172.942 40.6 173.198 40.728 173.198 41.24ZM155.15 55.96L152.846 101.4H160.014L157.71 55.96H155.15ZM198.685 143H183.325C182.941 143 182.685 142.744 182.685 142.36V41.24C182.685 40.856 182.941 40.6 183.325 40.6H198.685C199.069 40.6 199.325 40.856 199.453 41.24L208.285 84.12H210.845V41.24C210.845 40.856 211.101 40.6 211.485 40.6H228.125C228.509 40.6 228.765 40.856 228.765 41.24V142.36C228.765 142.744 228.509 143 228.125 143H213.277C212.893 143 212.637 142.744 212.509 142.36L201.885 94.36H199.325V142.36C199.325 142.744 199.069 143 198.685 143ZM234.575 40.6H270.415C270.799 40.6 271.055 40.856 271.055 41.24V55.32C271.055 55.704 270.799 55.96 270.415 55.96H260.815V142.36C260.815 142.744 260.559 143 260.175 143H244.815C244.431 143 244.175 142.744 244.175 142.36V55.96H234.575C234.191 55.96 233.935 55.704 233.935 55.32V41.24C233.935 40.856 234.191 40.6 234.575 40.6ZM318.681 142.232C318.937 142.616 318.681 143 318.297 143H302.681C302.425 143 302.041 142.744 301.913 142.488C300.249 139.928 300.249 135.448 300.249 133.016L300.505 96.92H292.825V142.36C292.825 142.744 292.569 143 292.185 143H276.825C276.441 143 276.185 142.744 276.185 142.36V41.24C276.185 40.856 276.441 40.6 276.825 40.6H304.345C314.585 40.6 317.145 48.28 317.145 61.08V78.744C317.145 85.656 313.177 87.704 311.129 87.96V90.52C313.049 90.776 317.145 92.824 317.145 99.736V133.016C317.145 135.192 317.145 139.672 318.681 142.232ZM292.825 81.56H300.505V55.96H292.825V81.56ZM360.948 41.24L366.58 142.36C366.58 142.872 366.324 143 365.94 143H350.58C350.196 143 349.94 142.872 349.94 142.36L348.66 116.76H339.7L338.42 142.36C338.42 142.872 338.164 143 337.78 143H322.42C322.036 143 321.78 142.872 321.78 142.36L327.412 41.24C327.412 40.728 327.668 40.6 328.052 40.6H360.308C360.692 40.6 360.948 40.728 360.948 41.24ZM342.9 55.96L340.596 101.4H347.764L345.46 55.96H342.9ZM105.083 194.6H120.443C120.827 194.6 121.083 194.856 121.083 195.24V296.36C121.083 296.744 120.827 297 120.443 297H105.083C104.699 297 104.443 296.744 104.443 296.36V253.48H96.7625V296.36C96.7625 296.744 96.5065 297 96.1225 297H80.7625C80.3785 297 80.1225 296.744 80.1225 296.36V195.24C80.1225 194.856 80.3785 194.6 80.7625 194.6H96.1225C96.5065 194.6 96.7625 194.856 96.7625 195.24V238.12H104.443V195.24C104.443 194.856 104.699 194.6 105.083 194.6ZM164.136 195.24L169.768 296.36C169.768 296.872 169.512 297 169.128 297H153.768C153.384 297 153.128 296.872 153.128 296.36L151.848 270.76H142.888L141.608 296.36C141.608 296.872 141.352 297 140.968 297H125.608C125.224 297 124.968 296.872 124.968 296.36L130.6 195.24C130.6 194.728 130.856 194.6 131.24 194.6H163.496C163.88 194.6 164.136 194.728 164.136 195.24ZM146.088 209.96L143.784 255.4H150.952L148.648 209.96H146.088ZM197.318 238.504V209.96H189.638V281.64H197.318V247.464C197.318 247.08 197.574 246.824 197.958 246.824H213.318C213.702 246.824 213.958 247.08 213.958 247.464V276.52C213.958 289.32 211.398 297 201.158 297H185.798C175.558 297 172.998 289.32 172.998 276.52V215.08C172.998 202.28 175.558 194.6 185.798 194.6H201.158C211.398 194.6 213.958 202.28 213.958 215.08V238.504C213.958 238.888 213.702 239.144 213.318 239.144H197.958C197.574 239.144 197.318 238.888 197.318 238.504ZM235.123 297H219.763C219.379 297 219.123 296.744 219.123 296.36V195.24C219.123 194.856 219.379 194.6 219.763 194.6H235.123C235.507 194.6 235.763 194.856 235.763 195.24V237.48H238.323L246.515 195.24C246.643 194.856 246.899 194.6 247.283 194.6H263.155C263.539 194.6 263.795 194.856 263.667 195.24L253.171 245.8L263.667 296.36C263.795 296.872 263.539 297 263.155 297H247.283C246.899 297 246.643 296.744 246.515 296.36L238.323 254.12H235.763V296.36C235.763 296.744 235.507 297 235.123 297ZM268.778 223.4H268.138C267.754 223.4 267.498 223.144 267.498 222.76V217.64C267.498 217.256 267.754 217 268.138 217H272.618C274.666 217 274.666 215.72 274.666 211.88H268.138C267.754 211.88 267.498 211.624 267.498 211.24V195.24C267.498 194.856 267.754 194.6 268.138 194.6H280.938C281.322 194.6 281.578 194.856 281.578 195.24V211.88C281.578 223.4 280.298 223.4 268.778 223.4ZM316.188 247.72L305.948 252.84C303.26 254.12 303.388 256.552 303.388 257.96V281.64H311.068V256.68C311.068 256.296 311.324 256.04 311.708 256.04H327.068C327.452 256.04 327.708 256.296 327.708 256.68V296.36C327.708 296.744 327.452 297 327.068 297H287.388C287.004 297 286.748 296.744 286.748 296.36V257.576C286.748 247.208 290.46 242.6 298.268 238.76L308.508 233.64C311.196 232.36 311.068 229.928 311.068 228.52V209.96H303.388V229.672C303.388 230.056 303.132 230.312 302.748 230.312H287.388C287.004 230.312 286.748 230.056 286.748 229.672V213.416C286.748 203.048 290.716 194.6 298.268 194.6H316.188C322.46 194.6 327.708 203.048 327.708 213.416V228.904C327.708 239.272 323.996 243.752 316.188 247.72ZM332.873 278.184V259.112C332.873 258.728 333.129 258.472 333.513 258.472H348.873C349.257 258.472 349.513 258.728 349.513 259.112V281.64H357.193V250.92H341.833C341.449 250.92 341.193 250.664 341.193 250.28V236.2C341.193 235.816 341.449 235.56 341.833 235.56H357.193V209.96H349.513V227.24C349.513 227.624 349.257 227.88 348.873 227.88H333.513C333.129 227.88 332.873 227.624 332.873 227.24V213.416C332.873 203.048 336.841 194.6 344.393 194.6H362.312C369.865 194.6 373.833 203.048 373.833 213.416V232.744C373.833 239.656 369.865 242.6 367.817 242.6V243.88C369.865 243.88 373.833 246.824 373.833 253.736V278.184C373.833 288.552 369.865 297 362.312 297H344.393C336.841 297 332.873 288.552 332.873 278.184Z" fill="white"/>
<path d="M400.425 276.25H387.925V266.25H400.675C407.425 266.25 411.425 261.5 411.425 255.5V196.75C411.425 186.5 414.675 179.5 425.175 176C414.675 172.75 411.425 165.75 411.425 155.5V97C411.425 91 407.425 86.25 400.675 86.25H387.925V76.25H400.425C414.175 76.25 422.175 84.75 422.175 97V155.5C422.175 163.75 425.675 170.75 442.175 170.75V181.5C425.675 181.5 422.175 188.5 422.175 196.75V255.5C422.175 267.75 414.175 276.25 400.425 276.25Z" fill="#34BB62"/>
</svg>
