<svg width="23" height="17" viewBox="0 0 23 17" fill="none" xmlns="http://www.w3.org/2000/svg">
<path d="M22.9947 6.3059C23.0464 4.82539 22.7193 3.35597 22.0439 2.03406C21.5857 1.49165 20.9497 1.12561 20.2469 0.999723C17.3398 0.738577 14.4206 0.631543 11.502 0.679077C8.59392 0.629385 5.68528 0.732966 2.78837 0.989379C2.21563 1.09252 1.6856 1.35848 1.26297 1.75479C0.322649 2.6133 0.21817 4.08206 0.11369 5.32327C-0.0378968 7.55493 -0.0378968 9.79415 0.11369 12.0258C0.143916 12.7244 0.248985 13.4179 0.427129 14.0945C0.553105 14.6169 0.80798 15.1002 1.16893 15.5012C1.59444 15.9185 2.13682 16.1996 2.72568 16.308C4.97817 16.5832 7.24778 16.6973 9.51685 16.6493C13.1736 16.701 16.3811 16.6493 20.1738 16.3597C20.7771 16.258 21.3347 15.9765 21.7723 15.5529C22.0648 15.2632 22.2833 14.9086 22.4096 14.5186C22.7833 13.3835 22.9668 12.1955 22.9529 11.0018C22.9947 10.4226 22.9947 6.9265 22.9947 6.3059ZM9.14072 11.6224V5.21984L15.3259 8.43664C13.5915 9.38823 11.3034 10.4639 9.14072 11.6224Z" fill="white" fill-opacity="0.6"/>
</svg>
